<?xml version="1.0" encoding="UTF-8"?>
<svg width="26px" height="26px" viewBox="0 0 26 26" version="1.1" xmlns="http://www.w3.org/2000/svg" xmlns:xlink="http://www.w3.org/1999/xlink">
    <!-- Generator: Sketch 46.1 (44463) - http://www.bohemiancoding.com/sketch -->
    <title>卡卷中心</title>
    <desc>Created with Sketch.</desc>
    <defs></defs>
    <g id="Symbols" stroke="none" stroke-width="1" fill="none" fill-rule="evenodd">
        <g id="卡卷中心">
            <rect id="Rectangle-79" x="0" y="0" width="26" height="26"></rect>
            <g id="Group-11" transform="translate(2.000000, 4.000000)">
                <path d="M0.5,6.14620565 C1.75228377,6.38068699 2.7,7.479668 2.7,8.8 C2.7,10.120332 1.75228377,11.219313 0.5,11.4537943 L0.5,15.6 C0.5,16.4284271 1.17157288,17.1 2,17.1 L20,17.1 C20.8284271,17.1 21.5,16.4284271 21.5,15.6 L21.5,11.4537943 C20.2477162,11.219313 19.3,10.120332 19.3,8.8 C19.3,7.479668 20.2477162,6.38068699 21.5,6.14620565 L21.5,2 C21.5,1.17157288 20.8284271,0.5 20,0.5 L2,0.5 C1.17157288,0.5 0.5,1.17157288 0.5,2 L0.5,6.14620565 Z" id="Combined-Shape" stroke="#CCCCCC"></path>
                <rect id="Rectangle-19" fill="#CCCCCC" x="6.6" y="6.6" width="8.8" height="1" rx="0.5"></rect>
                <rect id="Rectangle-19-Copy" fill="#CCCCCC" x="6.6" y="9.9" width="8.8" height="1" rx="0.5"></rect>
            </g>
        </g>
    </g>
</svg>