<?xml version="1.0" encoding="utf-8"?>
<!-- Generator: Adobe Illustrator 19.0.0, SVG Export Plug-In . SVG Version: 6.00 Build 0)  -->
<svg version="1.1" id="图层_1" xmlns="http://www.w3.org/2000/svg" xmlns:xlink="http://www.w3.org/1999/xlink" x="0px" y="0px"
	 viewBox="-442 434 16 16" style="enable-background:new -442 434 16 16;" xml:space="preserve">
<style type="text/css">
	.st0{fill:none;}
	.st1{fill:#939CA2;}
</style>
<title>拖拽</title>
<desc>Created with Sketch.</desc>
<g id="拖拽-选中">
	<g id="拖拽">
		<rect id="Rectangle" x="-442" y="434" class="st0" width="16" height="16"/>
		<path id="Triangle" class="st1" d="M-433.7,435.6l2,3h-4.6l2-3l0,0C-434.2,435.4-434,435.4-433.7,435.6
			C-433.8,435.5-433.7,435.5-433.7,435.6z"/>
		<path id="Triangle-Copy" class="st1" d="M-433.7,448.4C-433.7,448.5-433.8,448.5-433.7,448.4c-0.3,0.2-0.5,0.2-0.6,0l-2-3h4.6
			L-433.7,448.4z"/>
		<path id="Triangle-Copy-2" class="st1" d="M-427.6,442.3l-3,2v-4.6l3,2C-427.4,441.8-427.4,442-427.6,442.3
			C-427.5,442.2-427.5,442.3-427.6,442.3z"/>
		<path id="Triangle-Copy-3" class="st1" d="M-440.4,442.3l3,2v-4.6l-3,2C-440.6,441.8-440.6,442-440.4,442.3
			C-440.5,442.2-440.5,442.3-440.4,442.3z"/>
		<rect id="Rectangle-4" x="-438" y="441.2" class="st1" width="8" height="1.6"/>
		<polygon id="Rectangle-4_1_" class="st1" points="-433.2,437.9 -433.2,445.9 -434.8,445.9 -434.8,437.9 		"/>
	</g>
</g>
</svg>
