<?xml version="1.0" encoding="utf-8"?>
<!-- Generator: Adobe Illustrator 19.0.0, SVG Export Plug-In . SVG Version: 6.00 Build 0)  -->
<svg version="1.1" id="图层_1" xmlns="http://www.w3.org/2000/svg" xmlns:xlink="http://www.w3.org/1999/xlink" x="0px" y="0px"
	 viewBox="-441 435 14 14" style="enable-background:new -441 435 14 14;" xml:space="preserve">
<style type="text/css">
	.st0{fill:#CAD4DA;}
</style>
<title></title>
<desc>Created with Sketch.</desc>
<g id="_x30_4-积分规则" transform="translate(-453.000000, -396.000000)">
	<g id="内容" transform="translate(195.000000, 123.000000)">
		<g id="积分增加规则" transform="translate(20.000000, 171.000000)">
			<g id="问号实心-灰" transform="translate(238.000000, 102.000000)">
				<g id="积分规则-灰">
					<path id="Combined-Shape" class="st0" d="M-434,449c-3.9,0-7-3.1-7-7s3.1-7,7-7s7,3.1,7,7S-430.1,449-434,449z M-433.9,438.7
						c-0.8,0-1.3,0.2-1.8,0.7c-0.4,0.4-0.6,1-0.6,1.8h0.8c0-0.5,0.1-0.9,0.3-1.2c0.3-0.3,0.6-0.5,1.2-0.5c0.4,0,0.8,0.1,1,0.4
						c0.2,0.2,0.4,0.6,0.4,1c0,0.3-0.1,0.6-0.3,0.8c-0.1,0.1-0.2,0.2-0.4,0.4c-0.6,0.5-0.9,0.9-1.1,1.2c-0.1,0.3-0.2,0.6-0.2,0.9
						v0.2h0.8v-0.2c0-0.3,0.1-0.5,0.2-0.8c0.1-0.2,0.3-0.4,0.5-0.6c0.5-0.4,0.7-0.7,0.9-0.8c0.3-0.3,0.4-0.8,0.4-1.2
						c0-0.6-0.2-1.1-0.6-1.5C-432.7,438.9-433.2,438.7-433.9,438.7z M-434.1,445.1c-0.2,0-0.3,0.1-0.5,0.2c-0.1,0.1-0.2,0.3-0.2,0.4
						s0.1,0.3,0.2,0.5c0.1,0.1,0.3,0.2,0.5,0.2s0.3-0.1,0.5-0.2c0.1-0.1,0.2-0.3,0.2-0.5c0-0.2-0.1-0.3-0.2-0.4
						C-433.7,445.2-433.9,445.1-434.1,445.1z"/>
				</g>
			</g>
		</g>
	</g>
</g>
</svg>
