<?xml version="1.0" encoding="UTF-8"?>
<svg width="16px" height="16px" viewBox="0 0 16 16" version="1.1" xmlns="http://www.w3.org/2000/svg" xmlns:xlink="http://www.w3.org/1999/xlink">
    <!-- Generator: Sketch 46.1 (44463) - http://www.bohemiancoding.com/sketch -->
    <title>标题表头</title>
    <desc>Created with Sketch.</desc>
    <defs></defs>
    <g id="Symbols" stroke="none" stroke-width="1" fill="none" fill-rule="evenodd">
        <g id="标题表头">
            <g>
                <rect id="Rectangle" x="0" y="0" width="16" height="16"></rect>
                <path d="M6.46428571,3 C6.05007215,3 5.71428571,2.66421356 5.71428571,2.25 C5.71428571,1.83578644 6.05007215,1.5 6.46428571,1.5 C6.87849928,1.5 7.21428571,1.83578644 7.21428571,2.25 C7.21428571,2.66421356 6.87849928,3 6.46428571,3 Z M6.46428571,7 C6.05007215,7 5.71428571,6.66421356 5.71428571,6.25 C5.71428571,5.83578644 6.05007215,5.5 6.46428571,5.5 C6.87849928,5.5 7.21428571,5.83578644 7.21428571,6.25 C7.21428571,6.66421356 6.87849928,7 6.46428571,7 Z M6.46428571,11 C6.05007215,11 5.71428571,10.6642136 5.71428571,10.25 C5.71428571,9.83578644 6.05007215,9.5 6.46428571,9.5 C6.87849928,9.5 7.21428571,9.83578644 7.21428571,10.25 C7.21428571,10.6642136 6.87849928,11 6.46428571,11 Z M6.46428571,15 C6.05007215,15 5.71428571,14.6642136 5.71428571,14.25 C5.71428571,13.8357864 6.05007215,13.5 6.46428571,13.5 C6.87849928,13.5 7.21428571,13.8357864 7.21428571,14.25 C7.21428571,14.6642136 6.87849928,15 6.46428571,15 Z M9.89285714,3 C9.47864358,3 9.14285714,2.66421356 9.14285714,2.25 C9.14285714,1.83578644 9.47864358,1.5 9.89285714,1.5 C10.3070707,1.5 10.6428571,1.83578644 10.6428571,2.25 C10.6428571,2.66421356 10.3070707,3 9.89285714,3 Z M9.89285714,7 C9.47864358,7 9.14285714,6.66421356 9.14285714,6.25 C9.14285714,5.83578644 9.47864358,5.5 9.89285714,5.5 C10.3070707,5.5 10.6428571,5.83578644 10.6428571,6.25 C10.6428571,6.66421356 10.3070707,7 9.89285714,7 Z M9.89285714,11 C9.47864358,11 9.14285714,10.6642136 9.14285714,10.25 C9.14285714,9.83578644 9.47864358,9.5 9.89285714,9.5 C10.3070707,9.5 10.6428571,9.83578644 10.6428571,10.25 C10.6428571,10.6642136 10.3070707,11 9.89285714,11 Z M9.89285714,15 C9.47864358,15 9.14285714,14.6642136 9.14285714,14.25 C9.14285714,13.8357864 9.47864358,13.5 9.89285714,13.5 C10.3070707,13.5 10.6428571,13.8357864 10.6428571,14.25 C10.6428571,14.6642136 10.3070707,15 9.89285714,15 Z" id="Combined-Shape" fill="#0C9AFF"></path>
            </g>
        </g>
    </g>
</svg>