<?xml version="1.0" encoding="UTF-8"?>
<svg width="26px" height="26px" viewBox="0 0 26 26" version="1.1" xmlns="http://www.w3.org/2000/svg" xmlns:xlink="http://www.w3.org/1999/xlink">
    <!-- Generator: Sketch 46.1 (44463) - http://www.bohemiancoding.com/sketch -->
    <title>工具中心</title>
    <desc>Created with Sketch.</desc>
    <defs>
        <rect id="path-1" x="4.4" y="9.71666667" width="3.3" height="6.6" rx="1.65"></rect>
        <rect id="path-2" x="14.3" y="9.71666667" width="3.3" height="6.6" rx="1.65"></rect>
    </defs>
    <g id="Symbols" stroke="none" stroke-width="1" fill="none" fill-rule="evenodd">
        <g id="工具中心">
            <g id="Group-11">
                <rect id="Rectangle-17" x="0" y="0" width="26" height="26"></rect>
                <g id="Group" transform="translate(2.000000, 1.000000)">
                    <path d="M2,6.31666667 C1.44771525,6.31666667 1,6.76438192 1,7.31666667 L1,20.9166667 C1,21.4689514 1.44771525,21.9166667 2,21.9166667 L20,21.9166667 C20.5522847,21.9166667 21,21.4689514 21,20.9166667 L21,7.31666667 C21,6.76438192 20.5522847,6.31666667 20,6.31666667 L2,6.31666667 Z M2,5.31666667 L20,5.31666667 C21.1045695,5.31666667 22,6.21209717 22,7.31666667 L22,20.9166667 C22,22.0212362 21.1045695,22.9166667 20,22.9166667 L2,22.9166667 C0.8954305,22.9166667 1.3527075e-16,22.0212362 0,20.9166667 L0,7.31666667 C-1.3527075e-16,6.21209717 0.8954305,5.31666667 2,5.31666667 Z" id="Rectangle-32" fill="#CCCCCC" fill-rule="nonzero"></path>
                    <polygon id="Rectangle-34" fill="#CCCCCC" points="0.183333333 11.9166667 21.8166667 11.9166667 21.8166667 12.8333333 0.183333333 12.8333333"></polygon>
                    <g id="Rectangle-35">
                        <use fill="#FFFFFF" fill-rule="evenodd" xlink:href="#path-1"></use>
                        <rect stroke="#CCCCCC" stroke-width="1" x="4.9" y="10.2166667" width="2.3" height="5.6" rx="1.15"></rect>
                    </g>
                    <g id="Rectangle-35">
                        <use fill="#FFFFFF" fill-rule="evenodd" xlink:href="#path-2"></use>
                        <rect stroke="#CCCCCC" stroke-width="1" x="14.8" y="10.2166667" width="2.3" height="5.6" rx="1.15"></rect>
                    </g>
                    <path d="M15.5,5.23874919 L15.5,2.73874919 C15.5,2.18646444 15.0522847,1.73874919 14.5,1.73874919 L7.5,1.73874919 C6.94771525,1.73874919 6.5,2.18646444 6.5,2.73874919 L6.5,5.23874919 L15.5,5.23874919 Z M7.5,0.738749186 L14.5,0.738749186 C15.6045695,0.738749186 16.5,1.63417969 16.5,2.73874919 L16.5,6.23874919 L5.5,6.23874919 L5.5,2.73874919 C5.5,1.63417969 6.3954305,0.738749186 7.5,0.738749186 Z" id="Rectangle-33" fill="#CCCCCC" fill-rule="nonzero"></path>
                </g>
            </g>
        </g>
    </g>
</svg>