<?xml version="1.0" encoding="UTF-8"?>
<svg width="20px" height="20px" viewBox="0 0 20 20" version="1.1" xmlns="http://www.w3.org/2000/svg" xmlns:xlink="http://www.w3.org/1999/xlink">
    <!-- Generator: Sketch 47.1 (45422) - http://www.bohemiancoding.com/sketch -->
    <title>未选-修改密码</title>
    <desc>Created with Sketch.</desc>
    <defs></defs>
    <g id="Symbols" stroke="none" stroke-width="1" fill="none" fill-rule="evenodd">
        <g id="未选-修改密码">
            <g>
                <rect id="Rectangle-4" x="0" y="0" width="20" height="20"></rect>
                <path d="M12.5086505,7.2065 C12.5086505,5.958 11.384083,4.9405 10,4.9405 C8.61591696,4.9405 7.49134948,5.958 7.49134948,7.2065 L7.49134948,8.301 L12.5086505,8.301 L12.5086505,7.2065 Z M9.4982699,11.6175 L9.4982699,12.811 C9.4982699,13.0585 9.72318339,13.262 10,13.262 C10.2768166,13.262 10.5017301,13.0585 10.5017301,12.811 L10.5017301,11.6175 C10.8016148,11.4635 11.0034602,11.172 11.0034602,10.8365 C11.0034602,10.336 10.5536332,9.929 10,9.929 C9.44636678,9.929 8.99653979,10.336 8.99653979,10.8365 C8.99653979,11.172 9.19838524,11.4635 9.4982699,11.6175 L9.4982699,11.6175 Z M13.8062284,15 L6.19377163,15 C5.53633218,15 5,14.5215 5,13.9275 L5,9.3735 C5,8.7795 5.53056517,8.301 6.19377163,8.301 L6.48788927,8.301 L6.48788927,7.2395 C6.48788927,5.397 8.06228374,4 10,4 C11.9377163,4 13.5121107,5.397 13.5121107,7.2395 L13.5121107,8.3065 L13.8062284,8.3065 C14.4636678,8.3065 15,8.785 15,9.379 L15,13.933 C15,14.5215 14.4636678,15 13.8062284,15 L13.8062284,15 Z" id="Page-1" fill="#9AABB8"></path>
            </g>
        </g>
    </g>
</svg>