<?xml version="1.0" encoding="UTF-8"?>
<svg width="15px" height="16px" viewBox="0 0 15 16" version="1.1" xmlns="http://www.w3.org/2000/svg" xmlns:xlink="http://www.w3.org/1999/xlink">
    <!-- Generator: Sketch 46.1 (44463) - http://www.bohemiancoding.com/sketch -->
    <title>Group 26</title>
    <desc>Created with Sketch.</desc>
    <defs></defs>
    <g id="Page-1" stroke="none" stroke-width="1" fill="none" fill-rule="evenodd" opacity="0.728317482">
        <g id="01CRM首页-第一期-默认状态" transform="translate(-1477.000000, -21.000000)" fill="#FFFFFF">
            <g id="top">
                <g id="Group-3" transform="translate(1466.000000, 19.000000)">
                    <g id="Group-12" transform="translate(8.000000, 0.000000)">
                        <g id="Group-27">
                            <g id="Group-26" transform="translate(3.000000, 2.000000)">
                                <ellipse id="Oval-3" cx="7.43599215" cy="4.4137931" rx="3.88888889" ry="4.4137931"></ellipse>
                                <path d="M4.63170613,9.93103448 L10.2396979,9.93103448 L10.2396979,9.93103448 C11.8620257,9.93103448 13.3236805,10.9109353 13.9399061,12.411673 L14.2801608,13.2403193 L14.2801608,13.2403193 C14.6997209,14.2621035 14.2115217,15.430544 13.1897374,15.8501041 C12.9486931,15.9490805 12.6906305,16 12.4300567,16 L2.44134734,16 L2.44134734,16 C1.33677784,16 0.441347338,15.1045695 0.441347338,14 C0.441347338,13.7394262 0.492266802,13.4813636 0.591243241,13.2403193 L0.931497936,12.411673 L0.931497936,12.411673 C1.54772354,10.9109353 3.00937831,9.93103448 4.63170613,9.93103448 Z" id="Rectangle-39"></path>
                            </g>
                        </g>
                    </g>
                </g>
            </g>
        </g>
    </g>
</svg>