<?xml version="1.0" encoding="UTF-8"?>
<svg width="26px" height="26px" viewBox="0 0 26 26" version="1.1" xmlns="http://www.w3.org/2000/svg" xmlns:xlink="http://www.w3.org/1999/xlink">
    <!-- Generator: Sketch 46.1 (44463) - http://www.bohemiancoding.com/sketch -->
    <title>营销中心</title>
    <desc>Created with Sketch.</desc>
    <defs></defs>
    <g id="Symbols" stroke="none" stroke-width="1" fill="none" fill-rule="evenodd">
        <g id="营销中心">
            <g id="Group-11" transform="translate(0.000000, -3.000000)">
                <rect id="Rectangle-40" fill="#CCCCCC" transform="translate(10.853365, 16.730769) rotate(-315.000000) translate(-10.853365, -16.730769) " x="10.3846154" y="13.8461538" width="1" height="5.76923077" rx="0.5"></rect>
                <rect id="Rectangle-40" fill="#CCCCCC" transform="translate(13.161058, 19.038462) rotate(-315.000000) translate(-13.161058, -19.038462) " x="12.6923077" y="16.1538462" width="1" height="5.76923077" rx="0.5"></rect>
                <g id="Group" transform="translate(14.996821, 15.287564) rotate(-315.000000) translate(-14.996821, -15.287564) translate(6.496821, 3.287564)">
                    <path d="M1.60516102,7.33964256 C1.38351512,7.52962476 1.25595239,7.80697427 1.25595239,8.09889916 L1.25595239,21.3328755 C1.25595239,21.8851602 1.70366764,22.3328755 2.25595239,22.3328755 L14.4097985,22.3328755 C14.9620833,22.3328755 15.4097985,21.8851602 15.4097985,21.3328755 L15.4097985,8.09889916 C15.4097985,7.80697427 15.2822358,7.52962476 15.0605899,7.33964256 L8.98366684,2.13085135 C8.60917711,1.80986015 8.05657383,1.80986015 7.6820841,2.13085135 L1.60516102,7.33964256 Z M0.954369646,6.58038596 L7.03129272,1.37159475 C7.78027218,0.729612353 8.88547876,0.729612353 9.63445822,1.37159475 L15.7113813,6.58038596 C16.1546731,6.96035035 16.4097985,7.51504939 16.4097985,8.09889916 L16.4097985,21.3328755 C16.4097985,22.437445 15.514368,23.3328755 14.4097985,23.3328755 L2.25595239,23.3328755 C1.15138289,23.3328755 0.255952393,22.437445 0.255952393,21.3328755 L0.255952393,8.09889916 C0.255952393,7.51504939 0.51107785,6.96035035 0.954369646,6.58038596 Z" id="Rectangle-38" fill="#CCCCCC" fill-rule="nonzero"></path>
                    <circle id="Oval-10" stroke="#CCCCCC" cx="7.99492176" cy="9.14876791" r="1.80769231"></circle>
                </g>
            </g>
        </g>
    </g>
</svg>