<?xml version="1.0" encoding="UTF-8"?>
<svg width="48px" height="48px" viewBox="0 0 48 48" version="1.1" xmlns="http://www.w3.org/2000/svg" xmlns:xlink="http://www.w3.org/1999/xlink">
    <!-- Generator: Sketch 42 (36781) - http://www.bohemiancoding.com/sketch -->
    <title>余额</title>
    <desc>Created with Sketch.</desc>
    <defs></defs>
    <g id="Symbols" stroke="none" stroke-width="1" fill="none" fill-rule="evenodd">
        <g id="余额">
            <g>
                <rect id="Rectangle-2" fill="#D8D8D8" opacity="0" x="0" y="0" width="48" height="48"></rect>
                <g id="充值-3" transform="translate(6.000000, 10.000000)" fill-rule="nonzero" fill="#83888E">
                    <path d="M29.070838,27.9830046 L4.67977654,27.9830046 C2.11664804,27.9830046 0.0289385475,25.8415781 0.0289385475,23.2115326 L0.0289385475,4.80546282 C0.0289385475,2.1754173 2.11664804,0.0339908953 4.67977654,0.0339908953 L29.070838,0.0339908953 C31.6339665,0.0339908953 33.721676,2.1754173 33.721676,4.80546282 L33.721676,7.91138088 C33.721676,8.34901366 33.3744134,8.70591806 32.9486034,8.70591806 C32.5227933,8.70591806 32.1755307,8.34901366 32.1755307,7.91138088 L32.1755307,4.80546282 C32.1755307,3.05068285 30.7823464,1.62731411 29.070838,1.62731411 L4.67977654,1.62731411 C2.96826816,1.62731411 1.5750838,3.05493171 1.5750838,4.80546282 L1.5750838,23.2157815 C1.5750838,24.9705615 2.96826816,26.3939302 4.67977654,26.3939302 L29.070838,26.3939302 C30.7823464,26.3939302 32.1755307,24.9705615 32.1755307,23.2157815 L32.1755307,20.7132018 C32.1755307,20.275569 32.5227933,19.9186646 32.9486034,19.9186646 C33.3744134,19.9186646 33.721676,20.275569 33.721676,20.7132018 L33.721676,23.2157815 C33.721676,25.845827 31.6339665,27.9830046 29.070838,27.9830046 L29.070838,27.9830046 Z" id="Shape"></path>
                    <path d="M34.6394413,20.1183612 L24.0934078,20.1183612 C22.8118436,20.1183612 21.7700559,19.047648 21.7700559,17.7305008 L21.7700559,10.3502276 C21.7700559,9.03308042 22.8118436,7.96236722 24.0934078,7.96236722 L34.6435754,7.96236722 C35.9251397,7.96236722 36.9669274,9.03308042 36.9669274,10.3502276 L36.9669274,17.7347496 C36.9627933,19.047648 35.9210056,20.1183612 34.6394413,20.1183612 L34.6394413,20.1183612 Z M24.0934078,9.55144158 C23.6675978,9.55144158 23.3203352,9.90834598 23.3203352,10.3459788 L23.3203352,17.7305008 C23.3203352,18.1681335 23.6675978,18.5250379 24.0934078,18.5250379 L34.6435754,18.5250379 C35.0693855,18.5250379 35.416648,18.1681335 35.416648,17.7305008 L35.416648,10.3502276 C35.416648,9.91259484 35.0693855,9.55569044 34.6435754,9.55569044 L24.0934078,9.55569044 L24.0934078,9.55144158 Z" id="Shape"></path>
                    <path d="M25.5486034,14.0424886 C25.5486034,14.8074742 26.1705023,15.4276176 26.9376536,15.4276176 C27.7048049,15.4276176 28.3267039,14.8074742 28.3267039,14.0424886 C28.3267039,13.277503 27.7048049,12.6573596 26.9376536,12.6573596 C26.1705023,12.6573596 25.5486034,13.277503 25.5486034,14.0424886 Z" id="Shape"></path>
                </g>
            </g>
        </g>
    </g>
</svg>