<?xml version="1.0" encoding="UTF-8"?>
<svg width="49px" height="48px" viewBox="0 0 49 48" version="1.1" xmlns="http://www.w3.org/2000/svg" xmlns:xlink="http://www.w3.org/1999/xlink">
    <!-- Generator: Sketch 42 (36781) - http://www.bohemiancoding.com/sketch -->
    <title>卡券货架</title>
    <desc>Created with Sketch.</desc>
    <defs></defs>
    <g id="Symbols" stroke="none" stroke-width="1" fill="none" fill-rule="evenodd">
        <g id="卡券货架">
            <g id="礼包" transform="translate(0.500000, 0.000000)">
                <polygon id="Fill-1" fill="#FF5C5C" opacity="0" points="0 48 48 48 48 0 0 0"></polygon>
                <path d="M24,42.0104251 L24,42.0104251 L36.6,42.0104251 C38.4,42.0104251 39.6854118,40.7250134 39.6854118,38.9250134 L39.6854118,25.0385428 C39.6854118,24.5250134 39.6854118,24.2677193 39.4281176,24.0104251 L39.4281176,23.4958369 L39.9427059,23.4958369 C40.9718824,23.2385428 42,21.953131 42,20.6677193 L42,16.0385428 C42,14.2385428 40.7145882,12.953131 38.9145882,12.953131 L36.6,12.953131 L37.1145882,12.4385428 C37.6281176,11.6677193 38.1427059,10.3823075 37.8854118,9.35313102 C37.8854118,8.32501337 37.1145882,7.2958369 36.3427059,6.78230749 C35.0572941,6.01042513 33.7718824,6.01042513 32.2281176,6.26771925 C29.1427059,7.03854278 26.0572941,9.61042513 24.2572941,12.1823075 L24,12.4385428 L23.7427059,12.1823075 C21.9427059,9.61042513 18.8572941,7.03854278 15.7718824,6.26771925 C14.2281176,5.75313102 12.9427059,6.01042513 11.6572941,6.78230749 C10.6281176,7.2958369 10.1145882,8.32501337 10.1145882,9.35313102 C10.1145882,10.3823075 10.3718824,11.4104251 10.8854118,12.4385428 L11.4,12.953131 L9.08541176,12.953131 C7.28541176,12.953131 6,14.2385428 6,16.0385428 L6,20.6677193 C6,21.953131 7.02811765,23.2385428 8.31458824,23.4958369 L8.82811765,23.4958369 L8.57188235,24.0104251 C8.31458824,24.2677193 8.31458824,24.7823075 8.31458824,25.0385428 L8.31458824,38.9250134 C8.31458824,40.7250134 9.6,42.0104251 11.4,42.0104251 L24,42.0104251 Z M32.7427059,7.55313102 C33.7718824,7.2958369 34.8,7.2958369 35.5718824,7.81042513 C36.0854118,8.06771925 36.6,8.58230749 36.6,9.35313102 C36.6,10.3823075 35.5718824,11.9250134 34.8,12.6958369 L25.5427059,12.6958369 L26.0572941,11.9250134 C27.6,10.3823075 30.1718824,8.32501337 32.7427059,7.55313102 L32.7427059,7.55313102 Z M11.4,9.35313102 C11.4,8.58230749 11.9145882,8.32501337 12.4281176,7.81042513 C13.2,7.2958369 14.2281176,7.2958369 15.2572941,7.55313102 C17.5718824,8.06771925 20.1427059,10.1250134 21.9427059,12.1823075 L22.4572941,12.953131 L13.2,12.953131 C12.4281176,11.9250134 11.4,10.6385428 11.4,9.35313102 L11.4,9.35313102 Z M7.54270588,16.0385428 C7.54270588,15.2677193 8.31458824,14.4958369 9.08541176,14.4958369 L23.2281176,14.4958369 L23.2281176,22.2104251 L9.08541176,22.2104251 C8.05729412,22.2104251 7.54270588,21.4385428 7.54270588,20.6677193 L7.54270588,16.0385428 Z M9.85729412,25.0385428 C9.85729412,24.2677193 10.6281176,23.4958369 11.4,23.4958369 L23.2281176,23.4958369 L23.2281176,40.4677193 L11.4,40.4677193 C10.3718824,40.4677193 9.85729412,39.953131 9.85729412,38.9250134 L9.85729412,25.0385428 Z M38.1427059,38.9250134 C38.1427059,39.6958369 37.3718824,40.4677193 36.6,40.4677193 L24.7718824,40.4677193 L24.7718824,23.4958369 L36.6,23.4958369 C37.3718824,23.4958369 38.1427059,24.2677193 38.1427059,25.0385428 L38.1427059,38.9250134 Z M40.4572941,20.6677193 C40.4572941,21.4385428 39.6854118,22.2104251 38.9145882,22.2104251 L24.7718824,22.2104251 L24.7718824,14.4958369 L38.9145882,14.4958369 C39.6854118,14.4958369 40.4572941,15.2677193 40.4572941,16.0385428 L40.4572941,20.6677193 Z" id="Fill-2" fill="#83888E"></path>
            </g>
        </g>
    </g>
</svg>