<?xml version="1.0" encoding="UTF-8"?>
<svg width="48px" height="48px" viewBox="0 0 48 48" version="1.1" xmlns="http://www.w3.org/2000/svg" xmlns:xlink="http://www.w3.org/1999/xlink">
    <!-- Generator: Sketch 42 (36781) - http://www.bohemiancoding.com/sketch -->
    <title>优惠券</title>
    <desc>Created with Sketch.</desc>
    <defs></defs>
    <g id="Symbols" stroke="none" stroke-width="1" fill="none" fill-rule="evenodd">
        <g id="优惠券">
            <rect id="Rectangle" x="0" y="0" width="48" height="48"></rect>
            <path d="M8.16403954,12.4089675 C7.76489447,12.4089675 7.43948704,12.7274757 7.43948704,13.1181582 L7.43948704,19.0976405 C7.43948704,19.4114417 7.61581619,19.6954318 7.85786802,19.7738821 C9.32941491,20.2539979 10.3200641,21.5970672 10.3200641,23.1174341 C10.3200641,24.637801 9.32941491,25.9824392 7.85786802,26.4625551 C7.61581619,26.5410054 7.43948704,26.8234265 7.43948704,27.1372277 L7.43948704,34.8818418 C7.43948704,35.2725243 7.76489447,35.5910325 8.16403954,35.5910325 L39.8359605,35.5910325 C40.2351055,35.5910325 40.55891,35.2725243 40.55891,34.8818418 L40.55891,27.1372277 C40.55891,26.8234265 40.3841838,26.5410054 40.143735,26.4625551 C38.6689821,25.9824392 37.6799359,24.637801 37.6799359,23.1174341 C37.6799359,21.5970672 38.6689821,20.2539979 40.142132,19.7738821 C40.3841838,19.6954318 40.55891,19.4114417 40.55891,19.0976405 L40.55891,13.1181582 C40.55891,12.7274757 40.2351055,12.4089675 39.8359605,12.4089675 L8.16403954,12.4089675 Z M8.16403954,37 C6.96981031,37 6,36.0507513 6,34.8818418 L6,27.1372277 C6,26.2068071 6.56425327,25.3971999 7.40261822,25.1241929 C8.28586695,24.8370648 8.88057708,24.0305956 8.88057708,23.1174341 C8.88057708,22.2058415 8.28586695,21.3993724 7.40261822,21.1106753 C6.56425327,20.8376682 6,20.0280611 6,19.0976405 L6,13.1181582 C6,11.9492487 6.96981031,11 8.16403954,11 L39.8359605,11 C41.0285867,11 42,11.9492487 42,13.1181582 L42,19.0976405 C42,20.0280611 41.4357467,20.8376682 40.5973818,21.1106753 C39.7125301,21.3993724 39.1194229,22.2058415 39.1194229,23.1174341 C39.1194229,24.0305956 39.7125301,24.8370648 40.5973818,25.1241929 C41.4357467,25.3971999 42,26.2068071 42,27.1372277 L42,34.8818418 C42,36.0507513 41.0285867,37 39.8359605,37 L8.16403954,37 Z" id="Fill-1" fill="#83888E"></path>
            <g id="Group-2" transform="translate(19.000000, 17.000000)" fill="#83888E">
                <g id="Group-5">
                    <rect id="Rectangle-9" transform="translate(6.964286, 2.803173) rotate(45.000000) translate(-6.964286, -2.803173) " x="6.21428573" y="-0.411112412" width="1.49999997" height="6.42857143" rx="0.749999987"></rect>
                    <rect id="Rectangle-9" transform="translate(2.803173, 2.803173) scale(1, -1) rotate(45.000000) translate(-2.803173, -2.803173) " x="2.05317331" y="-0.411112412" width="1.49999997" height="6.42857143" rx="0.749999987"></rect>
                </g>
                <rect id="Rectangle-9-Copy" transform="translate(5.035714, 9.642857) scale(1, -1) translate(-5.035714, -9.642857) " x="4.28571429" y="4.28571429" width="1.49999997" height="10.7142857" rx="0.749999987"></rect>
                <rect id="Rectangle-9-Copy" transform="translate(5.035714, 6.964286) scale(1, -1) rotate(90.000000) translate(-5.035714, -6.964286) " x="4.28571429" y="2.14285714" width="1.49999997" height="9.64285714" rx="0.749999987"></rect>
                <rect id="Rectangle-9-Copy" transform="translate(5.035714, 10.178571) scale(1, -1) rotate(90.000000) translate(-5.035714, -10.178571) " x="4.28571429" y="5.35714286" width="1.49999997" height="9.64285714" rx="0.749999987"></rect>
            </g>
        </g>
    </g>
</svg>