<?xml version="1.0" encoding="UTF-8"?>
<svg width="48px" height="48px" viewBox="0 0 48 48" version="1.1" xmlns="http://www.w3.org/2000/svg" xmlns:xlink="http://www.w3.org/1999/xlink">
    <!-- Generator: Sketch 42 (36781) - http://www.bohemiancoding.com/sketch -->
    <title>积分</title>
    <desc>Created with Sketch.</desc>
    <defs></defs>
    <g id="Symbols" stroke="none" stroke-width="1" fill="none" fill-rule="evenodd">
        <g id="积分">
            <g>
                <rect id="Rectangle-2" fill="#D8D8D8" opacity="0" x="0" y="0" width="48" height="48"></rect>
                <g transform="translate(8.000000, 10.000000)" id="Shape" fill-rule="nonzero" fill="#83888E">
                    <path d="M16.5035626,14.0988599 C25.8901421,14.0988599 32.9681067,11.0714837 32.9681067,7.05667045 C32.9681067,3.04229358 25.8901421,0.0149174372 16.5035626,0.0149174372 C7.11698312,0.0149174372 0.0385815035,3.04233328 0.0385815035,7.05671011 C0.0385815035,11.0715234 7.11698312,14.0988599 16.5035626,14.0988599 Z M16.5035626,1.79197893 C25.1576704,1.79197893 31.1886338,4.56643565 31.1886338,7.05671011 C31.1886338,9.54698458 25.1577101,12.321838 16.5035626,12.321838 C7.84901785,12.321838 1.8180544,9.54694492 1.8180544,7.05671011 C1.8180544,4.56647531 7.84901785,1.79197893 16.5035626,1.79197893 Z"></path>
                    <path d="M16.5032448,21.5585349 C25.8641995,21.5585349 32.9231739,18.5500435 32.9231739,14.5612164 C32.9231739,13.5078417 32.4134988,12.5275855 31.5161543,11.648378 C31.5103937,11.642427 31.505825,11.6359602 31.4999055,11.6302075 C31.4932708,11.6237407 31.4888213,11.6167979 31.4821866,11.6104104 L31.477737,11.6152902 C31.3334039,11.483177 31.1447737,11.3978391 30.933538,11.3978391 C30.4854021,11.3978391 30.1221657,11.7605751 30.1221657,12.2080937 C30.1221657,12.444985 30.2278432,12.6532319 30.3900938,12.8013733 L30.3868758,12.8049042 C30.928413,13.3486314 31.2336063,14.0127681 31.2336063,14.5612164 C31.2336063,17.0729543 25.1843678,19.8714136 16.503205,19.8714136 C7.82243958,19.8714136 1.77316136,17.0729543 1.77316136,14.5612164 C1.77316136,13.9354838 1.94931691,13.3999691 2.6398355,12.790582 C2.64813873,12.7826473 2.65652143,12.7757838 2.66450681,12.7675316 C2.66983041,12.7629295 2.67384298,12.758486 2.67920629,12.7538045 L2.67590885,12.7506703 C2.80856183,12.6064567 2.8942162,12.4176895 2.8942162,12.2064274 C2.8942162,11.7589088 2.5309798,11.3961728 2.08284396,11.3961728 C1.85881573,11.3961728 1.65604222,11.4869064 1.50928563,11.6334211 L1.50451822,11.6288189 C0.595732034,12.5126682 0.0837923965,13.5005418 0.0837923965,14.5612164 C0.0837923965,18.5500038 7.14272708,21.5585349 16.5032448,21.5585349 Z"></path>
                    <path d="M31.5082881,19.0566361 C31.501733,19.0502487 31.4973231,19.0433454 31.4906885,19.036958 L31.4862389,19.0417982 C31.3419058,18.9096849 31.1532358,18.824347 30.9420001,18.824347 C30.4939437,18.824347 30.1306676,19.1870831 30.1306676,19.6346016 C30.1306676,19.8714929 30.2363053,20.0797795 30.3985956,20.2278812 L30.3953379,20.2314121 C30.9369149,20.7751393 31.2421081,21.439276 31.2421081,21.9877243 C31.2421081,24.4995416 25.1928697,27.2979215 16.5117069,27.2979215 C7.83094142,27.2979215 1.78166321,24.4995019 1.78166321,21.9877243 C1.78166321,21.3619917 1.95781876,20.826477 2.64825788,20.2170899 C2.65656111,20.2092345 2.66494381,20.2022917 2.67292919,20.1940395 C2.67825278,20.1894374 2.68226535,20.1849939 2.68762867,20.1803125 L2.68433123,20.1771783 C2.8169842,20.0329646 2.90263858,19.8441974 2.90263858,19.6329353 C2.90263858,19.1854167 2.53940218,18.8226807 2.09130605,18.8226807 C1.86727782,18.8226807 1.66450432,18.9134143 1.51774772,19.059929 L1.51298031,19.0553269 C0.604114655,19.9391761 0.0922544894,20.9270893 0.0922544894,21.9877243 C0.0922544894,25.9765513 7.15118918,28.9850429 16.5117466,28.9850429 C25.8726616,28.9850429 32.9315963,25.9765514 32.9315963,21.9877243 C32.9315963,20.9344686 32.4220006,19.9541331 31.5248151,19.0750447 C31.5189353,19.068935 31.5142474,19.0625078 31.5082881,19.0566361 Z"></path>
                </g>
            </g>
        </g>
    </g>
</svg>