<?xml version="1.0" encoding="UTF-8"?>
<svg width="48px" height="48px" viewBox="0 0 48 48" version="1.1" xmlns="http://www.w3.org/2000/svg" xmlns:xlink="http://www.w3.org/1999/xlink">
    <!-- Generator: Sketch 42 (36781) - http://www.bohemiancoding.com/sketch -->
    <title>我的信息</title>
    <desc>Created with Sketch.</desc>
    <defs></defs>
    <g id="Symbols" stroke="none" stroke-width="1" fill="none" fill-rule="evenodd">
        <g id="我的信息" fill="#83888E">
            <g id="Group-2" transform="translate(4.000000, 9.000000)">
                <path d="M1.76432956,29.748462 L1.76432956,1.31023653 L16.6618247,1.31023653 C16.6618247,1.31023653 17.2928417,1.2518864 17.2841778,0.655375114 C17.2755139,0.0588638287 16.6581429,-0.000301619828 16.6581429,-0.000301619828 L1.76432956,-0.000301619828 L1.46037173,-0.000301619828 C0.904452768,-0.000301619828 0.453791405,0.443386814 0.453791405,1.00627871 L0.453791405,1.31023653 L0.453791405,29.748462 L0.453791405,30.0524198 C0.453791405,30.6083388 0.897479839,31.0590001 1.46037173,31.0590001 L1.76432956,31.0590001 L8.6865046,31.0590001 C8.6865046,31.0590001 9.29041951,31.0212421 9.27154986,30.4326011 C9.25268022,29.8439601 8.6865046,29.748462 8.6865046,29.748462 L1.76432956,29.748462 Z" id="Fill-3"></path>
                <path d="M4.2247933,21.1133879 L10.2571899,21.1133879 C10.6736399,21.1133879 11.0112394,20.7757884 11.0112394,20.3593384 C11.0112394,19.9428883 10.6736399,19.6052888 10.2571899,19.6052888 L4.2247933,19.6052888 C3.80834322,19.6052888 3.47074373,19.9428883 3.47074373,20.3593384 C3.47074373,20.7757884 3.80834322,21.1133879 4.2247933,21.1133879 Z" id="Line" fill-rule="nonzero"></path>
                <path d="M4.52641313,13.5728922 L12.9717683,13.5728922 C13.5547984,13.5728922 14.0274377,13.2352928 14.0274377,12.8188427 C14.0274377,12.4023926 13.5547984,12.0647931 12.9717683,12.0647931 L4.52641313,12.0647931 C3.94338302,12.0647931 3.47074373,12.4023926 3.47074373,12.8188427 C3.47074373,13.2352928 3.94338302,13.5728922 4.52641313,13.5728922 Z" id="Line" fill-rule="nonzero"></path>
                <path d="M18.7073709,9.93113445 C18.7073709,6.31923701 21.6451481,3.38145989 25.2570455,3.38145989 C28.8674348,3.38145989 31.8067201,6.31923701 31.8067201,9.93113445 C31.8067201,13.5430319 28.8674348,16.480809 25.2570455,16.480809 C21.6451481,16.480809 18.7073709,13.5430319 18.7073709,9.93113445 M33.1157501,9.93113445 C33.1157501,5.59082513 29.5973548,2.07242984 25.2570455,2.07242984 C20.9167362,2.07242984 17.3968328,5.59082513 17.3968328,9.93113445 C17.3968328,13.0046405 19.1658331,15.6604031 21.7386502,16.9513359 C15.4845631,18.5242833 10.8486663,24.1675903 10.8486663,30.9087935 C10.8486663,31.1440569 10.8293084,31.973492 11.479805,31.973492 C12.1303016,31.973492 12.1576964,31.1440569 12.1576964,30.9087935 C12.1576964,23.6865067 18.0347587,17.8109524 25.2570455,17.8109524 C32.4793323,17.8109524 38.3548865,23.6865067 38.3548865,30.9087935 C38.3548865,31.1440569 38.2974417,31.9204729 38.9989784,31.9469825 C39.7005151,31.973492 39.6654247,31.1440569 39.6654247,30.9087935 C39.6654247,24.1675903 35.0280198,18.5242833 28.7754408,16.9513359 C31.3467498,15.6604031 33.1157501,13.0046405 33.1157501,9.93113445 Z" id="Fill-9"></path>
            </g>
        </g>
    </g>
</svg>