<?xml version="1.0" encoding="UTF-8"?>
<svg width="48px" height="48px" viewBox="0 0 48 48" version="1.1" xmlns="http://www.w3.org/2000/svg" xmlns:xlink="http://www.w3.org/1999/xlink">
    <!-- Generator: Sketch 42 (36781) - http://www.bohemiancoding.com/sketch -->
    <title>更换手机号</title>
    <desc>Created with Sketch.</desc>
    <defs></defs>
    <g id="Symbols" stroke="none" stroke-width="1" fill="none" fill-rule="evenodd">
        <g id="更换手机号" fill="#83888E">
            <path d="M35.70928,6 C37.4562634,6 38.88,7.40452204 38.88,9.13728 L38.88,40.86424 C38.88,42.596861 37.4564089,44 35.70928,44 L13.17224,44 C11.4249674,44 10,42.5967264 10,40.86424 L10,9.13728 C10,7.40465706 11.4251132,6 13.17224,6 L35.70928,6 Z M35.70928,7.52 L13.17224,7.52 C12.2597062,7.52 11.52,8.2490884 11.52,9.13728 L11.52,40.86424 C11.52,41.7519897 12.2592649,42.48 13.17224,42.48 L35.70928,42.48 C36.6218201,42.48 37.36,41.7524253 37.36,40.86424 L37.36,9.13728 C37.36,8.24865271 36.621379,7.52 35.70928,7.52 Z" id="Stroke-3" fill-rule="nonzero"></path>
            <path d="M24.44,38.883976 C24.022,38.883976 23.68,39.225976 23.68,39.643976 C23.68,40.061976 24.022,40.403976 24.44,40.403976 C24.858,40.403976 25.2,40.061976 25.2,39.643976 C25.2,39.225976 24.858,38.883976 24.44,38.883976 M24.44,41.923976 C23.18296,41.923976 22.16,40.901016 22.16,39.643976 C22.16,38.386936 23.18296,37.363976 24.44,37.363976 C25.69704,37.363976 26.72,38.386936 26.72,39.643976 C26.72,40.901016 25.69704,41.923976 24.44,41.923976" id="Fill-4"></path>
            <path d="M37.625,35.52 L11.375,35.52 C11.375,35.1391602 11.375,34.76 11.375,34 L37.625,34" id="Fill-5"></path>
        </g>
    </g>
</svg>