<?xml version="1.0" encoding="UTF-8"?>
<svg width="48px" height="48px" viewBox="0 0 48 48" version="1.1" xmlns="http://www.w3.org/2000/svg" xmlns:xlink="http://www.w3.org/1999/xlink">
    <!-- Generator: Sketch 42 (36781) - http://www.bohemiancoding.com/sketch -->
    <title>我的排号</title>
    <desc>Created with Sketch.</desc>
    <defs></defs>
    <g id="Symbols" stroke="none" stroke-width="1" fill="none" fill-rule="evenodd">
        <g id="我的排号">
            <g id="Group-2" transform="translate(5.000000, 8.000000)" fill="#83888E">
                <path d="M7.80823545,10.1995398 C7.80823545,6.61104482 10.7269779,3.69230234 14.3154729,3.69230234 C17.9024696,3.69230234 20.8227104,6.61104482 20.8227104,10.1995398 C20.8227104,13.7880348 17.9024696,16.7067773 14.3154729,16.7067773 C10.7269779,16.7067773 7.80823545,13.7880348 7.80823545,10.1995398 M17.8110716,17.1742555 C20.3657204,15.891687 22.1232589,13.2531318 22.1232589,10.1995398 C22.1232589,5.88735251 18.6276602,2.39175385 14.3154729,2.39175385 C10.0032856,2.39175385 6.50618863,5.88735251 6.50618863,10.1995398 C6.50618863,13.2531318 8.26372709,15.891687 10.8198742,17.1742555 C4.60630903,18.7370114 0.000449498328,24.3437538 0.000449498328,31.0412789 C0.000449498328,31.2750181 0.0244227425,31.5027639 0.0349110368,31.7335064 L1.33695786,31.7335064 C1.32347291,31.5027639 1.30099799,31.2750181 1.30099799,31.0412789 C1.30099799,23.8657873 7.13998127,18.0283023 14.3154729,18.0283023 C21.4909645,18.0283023 27.3284495,23.8657873 27.3284495,31.0412789 C27.3284495,31.2750181 27.3059746,31.5027639 27.293988,31.7335064 L28.5945365,31.7335064 C28.6065231,31.5027639 28.6304963,31.2750181 28.6304963,31.0412789 C28.6304963,24.3437538 24.0231385,18.7370114 17.8110716,17.1742555" id="Fill-1"></path>
                <path d="M23,16.6107245 C23.1048595,16.6082173 23.2100219,16.6069565 23.3154729,16.6069565 C30.4909645,16.6069565 36.3284495,22.4444415 36.3284495,29.6199331 C36.3284495,29.8536722 36.3059746,30.0814181 36.293988,30.3121605 L37.5945365,30.3121605 C37.6065231,30.0814181 37.6304963,29.8536722 37.6304963,29.6199331 C37.6304963,22.922408 33.0231385,17.3156656 26.8110716,15.7529097 C29.3657204,14.4703411 31.1232589,11.831786 31.1232589,8.77819399 C31.1232589,4.4660067 27.6276602,0.970408034 23.3154729,0.970408034 C23.2098128,0.970408034 23.104642,0.972506727 23,0.976664701 L23,2.27850438 C23.1045375,2.27349167 23.2097144,2.27095653 23.3154729,2.27095653 C26.9024696,2.27095653 29.8227104,5.189699 29.8227104,8.77819399 C29.8227104,12.366689 26.9024696,15.2854314 23.3154729,15.2854314 C23.2097144,15.2854314 23.1045375,15.2828963 23,15.2778836 L23,16.6107245 Z" id="Combined-Shape"></path>
            </g>
            <rect id="Rectangle-7" x="0" y="0" width="48" height="48"></rect>
        </g>
    </g>
</svg>