<?xml version="1.0" encoding="UTF-8"?>
<svg width="48px" height="48px" viewBox="0 0 48 48" version="1.1" xmlns="http://www.w3.org/2000/svg" xmlns:xlink="http://www.w3.org/1999/xlink">
    <!-- Generator: Sketch 42 (36781) - http://www.bohemiancoding.com/sketch -->
    <title>我的订单</title>
    <desc>Created with Sketch.</desc>
    <defs></defs>
    <g id="Symbols" stroke="none" stroke-width="1" fill="none" fill-rule="evenodd">
        <g id="我的订单" fill="#83888E">
            <g id="Page-1" transform="translate(9.000000, 5.000000)">
                <g id="Group-3">
                    <path d="M2.11040741,36.5909037 C1.72337037,36.5909037 1.4067037,36.274237 1.4067037,35.8872 L1.4067037,10.7171259 C1.4067037,10.3286815 1.72337037,10.0134222 2.11040741,10.0134222 L4.67048148,10.0134222 L4.67048148,11.3673481 C4.67048148,12.5312741 5.61766667,13.4784593 6.78159259,13.4784593 L25.5887778,13.4784593 C26.7512963,13.4784593 27.6984815,12.5312741 27.6984815,11.3673481 L27.6984815,10.0134222 L30.2585556,10.0134222 C30.647,10.0134222 30.9622593,10.3286815 30.9622593,10.7171259 L30.9622593,34.9878667 L30.9622593,35.8872 C30.9622593,36.274237 30.647,36.5909037 30.2585556,36.5909037 L2.11040741,36.5909037 Z M6.07788889,10.0134222 L6.07788889,8.60601481 L6.07788889,6.92838519 C6.07788889,6.53994074 6.39314815,6.22468148 6.78159259,6.22468148 L10.7744074,6.22468148 C11.715963,6.22468148 12.5378889,5.5814963 12.8207778,4.62586667 C13.2598889,3.14527407 14.6433704,2.11082963 16.1844815,2.11082963 C17.727,2.11082963 19.1104815,3.14527407 19.5481852,4.62586667 C19.8324815,5.5829037 20.6544074,6.22468148 21.595963,6.22468148 L25.5887778,6.22468148 C25.9772222,6.22468148 26.2910741,6.53994074 26.2910741,6.92838519 L26.2910741,8.60601481 L26.2910741,10.0134222 L26.2910741,11.3673481 C26.2910741,11.7557926 25.9772222,12.0710519 25.5887778,12.0710519 L6.78159259,12.0710519 C6.39314815,12.0710519 6.07788889,11.7557926 6.07788889,11.3673481 L6.07788889,10.0134222 Z M32.0107778,37.0652 C32.2373704,36.7288296 32.3696667,36.3234963 32.3696667,35.8872 L32.3696667,10.9338667 L32.3696667,10.7171259 C32.3696667,10.7044593 32.364037,10.6917926 32.364037,10.6791259 C32.3598148,10.4806815 32.326037,10.2906815 32.2697407,10.1091259 C32.0065556,9.24216296 31.209963,8.60601481 30.2585556,8.60601481 L27.6984815,8.60601481 L27.6984815,6.92838519 C27.6984815,5.76445926 26.7512963,4.81727407 25.5887778,4.81727407 L21.595963,4.81727407 C21.2103333,4.81727407 20.9795185,4.4992 20.8978889,4.22475556 C20.2842593,2.15164444 18.3462593,0.703422222 16.1844815,0.703422222 C14.0255185,0.703422222 12.0861111,2.15164444 11.4710741,4.22616296 C11.3908519,4.4992 11.160037,4.81727407 10.7744074,4.81727407 L6.78159259,4.81727407 C5.61766667,4.81727407 4.67048148,5.76445926 4.67048148,6.92838519 L4.67048148,8.60601481 L2.11040741,8.60601481 C0.946481481,8.60601481 -0.000703703704,9.5532 -0.000703703704,10.7171259 L-0.000703703704,35.8872 C-0.000703703704,37.0511259 0.946481481,37.9983111 2.11040741,37.9983111 L3.49811111,37.9983111 L3.50092593,37.9983111 L30.2585556,37.9983111 C30.9875926,37.9983111 31.6307778,37.628163 32.0107778,37.0652 L32.0107778,37.0652 Z" id="Fill-1"></path>
                </g>
                <polygon id="Fill-4" points="7 30.4074074 26.7037037 30.4074074 26.7037037 29 7 29"></polygon>
                <polygon id="Fill-6" points="7 22.4074074 20.7574074 22.4074074 20.7574074 21 7 21"></polygon>
            </g>
        </g>
    </g>
</svg>