<?xml version="1.0" encoding="UTF-8"?>
<svg width="48px" height="48px" viewBox="0 0 48 48" version="1.1" xmlns="http://www.w3.org/2000/svg" xmlns:xlink="http://www.w3.org/1999/xlink">
    <!-- Generator: Sketch 42 (36781) - http://www.bohemiancoding.com/sketch -->
    <title>支付密码</title>
    <desc>Created with Sketch.</desc>
    <defs></defs>
    <g id="Symbols" stroke="#fff" stroke-width="1" fill="#fff" fill-rule="evenodd">
        <g id="支付密码">
            <g id="密码3">
                <polygon id="Fill-1" fill="#fff" opacity="0" points="0 48 48 48 48 0 0 0"></polygon>
                <g id="Group-6" transform="translate(9.000000, 5.000000)" fill="#fff">
                    <path d="M28.4429062,19.6453125 C28.4429062,26.600625 22.9407187,33.0365625 14.9485312,35.4234375 C6.85134375,33.1396875 1.45321875,26.8078125 1.45321875,19.6453125 L1.45321875,6.980625 C2.07571875,7.0846875 2.59509375,7.0846875 3.21759375,7.0846875 C4.67165625,7.0846875 6.22790625,6.8775 7.78509375,6.358125 C10.4841562,5.5275 12.9760312,4.074375 14.9485312,2.101875 C16.2975937,3.3478125 18.7885312,5.21625 21.9029062,6.358125 C23.3560312,6.8775 24.9132187,7.0846875 26.3663437,7.0846875 C27.0938437,7.0846875 27.7163437,6.980625 28.3388437,6.8775 L28.3388437,19.6453125 L28.4429062,19.6453125 Z M28.7541562,5.4234375 L28.5469687,5.4234375 C28.0275937,5.5275 27.3010312,5.6315625 26.4704062,5.6315625 C25.1213437,5.6315625 23.7713437,5.4234375 22.5263437,5.0090625 C19.4119687,3.9703125 17.0241562,1.9978125 15.8822812,0.8559375 C15.5710312,0.64875 15.2597812,0.5446875 15.0516562,0.5446875 C14.7404062,0.5446875 14.4291562,0.64875 14.2210312,0.96 C12.3525937,2.9325 10.0688437,4.2815625 7.47384375,5.0090625 C5.81353125,5.5275 4.35946875,5.6315625 3.32165625,5.6315625 C2.69915625,5.6315625 1.97259375,5.5275 1.34915625,5.4234375 C0.72665625,5.3203125 0.10415625,5.735625 9.375e-05,6.358125 L9.375e-05,19.6453125 C9.375e-05,27.845625 6.33196875,34.59375 14.6363437,36.8775 C14.8444687,36.980625 15.0516562,36.980625 15.3629062,36.8775 C23.5641562,34.4896875 30.0000937,27.845625 30.0000937,19.6453125 L30.0000937,6.5653125 C30.0000937,5.9428125 29.3775937,5.4234375 28.7541562,5.4234375 L28.7541562,5.4234375 Z" id="Fill-2"></path>
                    <path d="M21.9030938,13.4169375 L13.8059063,22.447875 L9.75778125,18.8150625 C9.44653125,18.6069375 8.92715625,18.6069375 8.71996875,18.919125 C8.51184375,19.230375 8.51184375,19.6456875 8.71996875,19.852875 L13.2874688,24.0050625 C13.5987188,24.3163125 14.1171563,24.2131875 14.3252813,23.901 L22.9409063,14.351625 C23.2521563,14.0394375 23.1490313,13.521 22.8377813,13.312875 C22.7337188,13.1056875 22.2143438,13.1056875 21.9030938,13.4169375" id="Fill-4"></path>
                </g>
            </g>
        </g>
    </g>
</svg>