<?xml version="1.0" encoding="UTF-8"?>
<svg width="48px" height="48px" viewBox="0 0 48 48" version="1.1" xmlns="http://www.w3.org/2000/svg" xmlns:xlink="http://www.w3.org/1999/xlink">
    <!-- Generator: Sketch 42 (36781) - http://www.bohemiancoding.com/sketch -->
    <title>签到</title>
    <desc>Created with Sketch.</desc>
    <defs></defs>
    <g id="Symbols" stroke="none" stroke-width="1" fill="none" fill-rule="evenodd">
        <g id="签到" fill="#83888E">
            <path d="M8.18576,11.52304 C7.786,11.52304 7.4592,11.86352 7.4592,12.28152 L7.4592,39.12 C7.4592,39.538 7.786,39.87848 8.18576,39.87848 L40.29424,39.87848 C40.694,39.87848 41.0208,39.538 41.0208,39.12 L41.0208,12.28152 C41.0208,11.86352 40.694,11.52304 40.29424,11.52304 L8.18576,11.52304 Z M40.29424,41.4 L8.18576,41.4 C6.9804,41.4 6,40.37704 6,39.12 L6,12.28152 C6,11.02448 6.9804,10 8.18576,10 L40.29424,10 C41.4996,10 42.48,11.02448 42.48,12.28152 L42.48,39.12 C42.48,40.37704 41.4996,41.4 40.29424,41.4 Z" id="Fill-1"></path>
            <polygon id="Fill-3" points="6 18.52 42.48 18.52 42.48 17 6 17"></polygon>
            <path d="M14.76,11.56 L14.76,11.56 C14.34048,11.56 14,11.21952 14,10.8 L14,7.76 C14,7.34048 14.34048,7 14.76,7 L14.76,7 C15.17952,7 15.52,7.34048 15.52,7.76 L15.52,10.8 C15.52,11.21952 15.17952,11.56 14.76,11.56" id="Fill-5"></path>
            <path d="M34.76,11.56 L34.76,11.56 C34.34048,11.56 34,11.21952 34,10.8 L34,7.76 C34,7.34048 34.34048,7 34.76,7 C35.17952,7 35.52,7.34048 35.52,7.76 L35.52,10.8 C35.52,11.21952 35.17952,11.56 34.76,11.56" id="Fill-6"></path>
            <path d="M30.8280108,23.2223 L22.5715477,32.3575 L19.1733628,28.59702 C18.9041452,28.2991 18.4701006,28.2991 18.200883,28.59702 C17.933039,28.89342 17.933039,29.37374 18.200883,29.67166 L22.0866814,33.97022 C22.3545254,34.26662 22.7899436,34.26662 23.0577876,33.97022 L31.799117,24.29694 C32.066961,24.00054 32.066961,23.5187 31.799117,23.2223 C31.531273,22.9259 31.0958548,22.9259 30.8280108,23.2223 Z" id="Fill-7" transform="translate(25.000000, 28.596260) rotate(-2.000000) translate(-25.000000, -28.596260) "></path>
        </g>
    </g>
</svg>