<?xml version="1.0" encoding="UTF-8"?>
<svg width="48px" height="48px" viewBox="0 0 48 48" version="1.1" xmlns="http://www.w3.org/2000/svg" xmlns:xlink="http://www.w3.org/1999/xlink">
    <!-- Generator: Sketch 42 (36781) - http://www.bohemiancoding.com/sketch -->
    <title>转账</title>
    <desc>Created with Sketch.</desc>
    <defs>
        <rect id="path-1" x="0" y="0" width="38" height="38" rx="19"></rect>
        <mask id="mask-2" maskContentUnits="userSpaceOnUse" maskUnits="objectBoundingBox" x="0" y="0" width="38" height="38" fill="white">
            <use xlink:href="#path-1"></use>
        </mask>
    </defs>
    <g id="Symbols" stroke="#fff" stroke-width="1" fill="none" fill-rule="evenodd">
        <g id="转账">
            <g>
                <rect id="Rectangle-8" fill="#fff" opacity="0" x="0" y="0" width="48" height="48"></rect>
                <g id="Group" transform="translate(5.000000, 5.000000)">
                    <use id="Rectangle-5" stroke="#fff" mask="url(#mask-2)" stroke-width="2.8" xlink:href="#path-1"></use>
                    <path d="M10.8523831,15.1543939 C10.754261,15.2276785 10.6875,15.3455385 10.6875,15.4784465 L10.6875,16.3360567 C10.6875,16.560585 10.8641504,16.7385016 11.0820597,16.7385016 L26.9179403,16.7385016 C27.1257935,16.7385016 27.3125,16.5583209 27.3125,16.3360567 L27.3125,15.4784465 C27.3125,15.2539182 27.1358496,15.0760016 26.9179403,15.0760016 L13.2380811,15.0760016 L16.5477068,11.7663759 C16.7084752,11.6056075 16.7063352,11.3543898 16.550069,11.1981235 L15.9946839,10.6427385 C15.8317349,10.4797895 15.5816826,10.4869542 15.4212502,10.643815 L10.8344816,15.128471 L10.8523831,15.1543939 Z" id="Combined-Shape" fill="#fff"></path>
                    <path d="M10.8734624,25.4863974 C10.7639461,25.557977 10.6875,25.6829683 10.6875,25.8251905 L10.6875,26.6828008 C10.6875,26.907329 10.8641504,27.0852456 11.0820597,27.0852456 L26.9179403,27.0852456 C27.1257935,27.0852456 27.3125,26.9050649 27.3125,26.6828008 L27.3125,25.8251905 C27.3125,25.6006623 27.1358496,25.4227457 26.9179403,25.4227457 L13.2431447,25.4227457 L16.5512873,22.1146031 C16.7120557,21.9538346 16.7094875,21.7021887 16.5526931,21.5453943 L15.9954307,20.9881319 C15.8319309,20.8246321 15.5820357,20.8310307 15.4222973,20.9874467 L10.855372,25.4593883 L10.8734624,25.4863974 Z" id="Combined-Shape" fill="#fff" transform="translate(19.000000, 23.992623) rotate(180.000000) translate(-19.000000, -23.992623) "></path>
                </g>
            </g>
        </g>
    </g>
</svg>