<?xml version="1.0" encoding="UTF-8"?>
<svg width="26px" height="26px" viewBox="0 0 26 26" version="1.1" xmlns="http://www.w3.org/2000/svg" xmlns:xlink="http://www.w3.org/1999/xlink">
    <!-- Generator: Sketch 46.1 (44463) - http://www.bohemiancoding.com/sketch -->
    <title>报表中心</title>
    <desc>Created with Sketch.</desc>
    <defs></defs>
    <g id="Symbols" stroke="none" stroke-width="1" fill="none" fill-rule="evenodd">
        <g id="报表中心" fill="#CCCCCC">
            <g id="Group-11" transform="translate(3.000000, 5.000000)">
                <path d="M0.5,-2.29383569e-14 L0.5,-2.29383569e-14 L0.5,-2.29261055e-14 C0.776142375,-2.29768326e-14 1,0.223857625 1,0.5 L1,19.5 L1,19.5 C1,19.7761424 0.776142375,20 0.5,20 L0.5,20 L0.5,20 C0.223857625,20 3.38203315e-17,19.7761424 0,19.5 L-6.77626358e-21,0.5 L-5.55111512e-17,0.5 C-8.93314827e-17,0.223857625 0.223857625,-2.28753783e-14 0.5,-2.29261055e-14 Z" id="Rectangle-23"></path>
                <path d="M5.5,11 L5.5,11 L5.5,11 C5.77614237,11 6,11.2238576 6,11.5 L6,19.1 L6,19.1 C6,19.3761424 5.77614237,19.6 5.5,19.6 L5.5,19.6 L5.5,19.6 C5.22385763,19.6 5,19.3761424 5,19.1 L5,11.5 L5,11.5 C5,11.2238576 5.22385763,11 5.5,11 Z" id="Rectangle-25"></path>
                <path d="M10.5,6 L10.5,6 L10.5,6 C10.7761424,6 11,6.22385763 11,6.5 L11,18.9 L11,18.9 C11,19.1761424 10.7761424,19.4 10.5,19.4 L10.5,19.4 L10.5,19.4 C10.2238576,19.4 10,19.1761424 10,18.9 L10,6.5 L10,6.5 C10,6.22385763 10.2238576,6 10.5,6 Z" id="Rectangle-25-Copy"></path>
                <path d="M15.5,2.8 L15.5,2.8 L15.5,2.8 C15.7761424,2.8 16,3.02385763 16,3.3 L16,19.5 L16,19.5 C16,19.7761424 15.7761424,20 15.5,20 L15.5,20 L15.5,20 C15.2238576,20 15,19.7761424 15,19.5 L15,3.3 L15,3.3 C15,3.02385763 15.2238576,2.8 15.5,2.8 Z" id="Rectangle-25-Copy-2"></path>
                <path d="M0.5,19 L19.502243,19 L19.502243,19 C19.7783854,19 20.002243,19.2238576 20.002243,19.5 L20.002243,19.5 L20.002243,19.5 C20.002243,19.7761424 19.7783854,20 19.502243,20 L0.5,20 L0.5,20 C0.223857625,20 3.38176876e-17,19.7761424 0,19.5 L0,19.5 L0,19.5 C-3.38176876e-17,19.2238576 0.223857625,19 0.5,19 Z" id="Rectangle-24"></path>
            </g>
        </g>
    </g>
</svg>