<?xml version="1.0" encoding="UTF-8"?>
<svg width="36px" height="36px" viewBox="0 0 36 36" version="1.1" xmlns="http://www.w3.org/2000/svg" xmlns:xlink="http://www.w3.org/1999/xlink">
    <!-- Generator: Sketch 46.1 (44463) - http://www.bohemiancoding.com/sketch -->
    <title>Group 40</title>
    <desc>Created with Sketch.</desc>
    <defs></defs>
    <g id="Page-1" stroke="none" stroke-width="1" fill="none" fill-rule="evenodd">
        <g id="03CRM首页-第一期-门店下拉" transform="translate(-1302.000000, -251.000000)">
            <g id="Group-6" transform="translate(495.000000, 101.000000)">
                <g id="Group-8-Copy-3" transform="translate(807.000000, 81.000000)">
                    <g id="Group-40" transform="translate(0.000000, 69.000000)">
                        <circle id="Oval-6" fill="#FFE0A6" cx="18" cy="18" r="18"></circle>
                        <g id="Page-1" transform="translate(5.000000, 5.000000)">
                            <g id="元宝">
                                <rect id="Rectangle-13" x="0" y="0" width="26" height="26"></rect>
                                <path d="M24.3065186,8.80288696 C23.8009351,8.15084712 23.0339544,7.7794416 22.1127287,7.77571643 C22.1029962,7.77571643 20.9748388,7.81447838 20.6531985,7.8885456 C20.5090577,7.92163589 20.3425323,7.96083413 20.1567434,8.00466366 C19.7190186,8.10752547 19.1796065,8.23451702 18.574316,8.36691175 C18.3563764,7.177205 17.6976246,6.08804441 16.7105875,5.29001799 C15.6884129,4.46359969 14.3782589,4.00550386 13.0214898,4 C11.6238444,4 10.3011724,4.46255933 9.27231939,5.3026366 C8.2775299,6.11506032 7.62384561,7.22247762 7.42295465,8.43148145 C6.25251142,8.17427658 5.29269159,7.91972296 4.81784925,7.78890556 C4.62605309,7.73638395 4.08999707,7.70470319 4.06717618,7.7034279 L3.8912204,7.70285738 C2.96543054,7.70285738 2.21009261,8.04460022 1.70705976,8.69100196 C1.2473866,9.28145896 1.00296815,10.1097231 1.00001486,11.0860545 C0.998169049,11.7640027 1.16835249,12.4206739 1.4922749,12.9851218 L5.25641308,19.0110788 C5.96956593,20.1491365 6.80991168,20.746876 7.75530066,20.7896652 L18.3249977,20.8202049 C19.4530545,20.7200615 20.1806718,19.8346444 20.6898461,19.0725609 L24.4959345,13.0806004 C24.8234814,12.5185352 24.9978598,11.8633407 24.9999741,11.1854932 C25.0028939,10.2101014 24.869181,9.55061377 24.4042053,8.95092773 L24.3065186,8.80288696 Z" id="Path" stroke="#FFFFFF" stroke-width="1"></path>
                            </g>
                        </g>
                    </g>
                </g>
            </g>
        </g>
    </g>
</svg>