<?xml version="1.0" encoding="UTF-8"?>
<svg width="22px" height="22px" viewBox="0 0 22 22" version="1.1" xmlns="http://www.w3.org/2000/svg" xmlns:xlink="http://www.w3.org/1999/xlink">
    <!-- Generator: Sketch 46.1 (44463) - http://www.bohemiancoding.com/sketch -->
    <title>Fill 1</title>
    <desc>Created with Sketch.</desc>
    <defs></defs>
    <g id="Page-1" stroke="none" stroke-width="1" fill="none" fill-rule="evenodd">
        <g id="01CRM首页-第一期-默认状态" transform="translate(-1402.000000, -649.000000)" fill="#CCCCCC">
            <g id="Group-6-Copy-2" transform="translate(495.000000, 566.000000)">
                <g id="Group-32-Copy" transform="translate(907.000000, 82.000000)">
                    <path d="M21.6664376,9.30147446 C21.59806,9.0304129 21.3228358,8.86617212 21.0518967,8.93442723 C20.7808351,9.00283538 20.6165638,9.27799837 20.6849413,9.54899871 C20.8858195,10.3456246 20.9877124,11.1702872 20.9877124,12 C20.9877124,17.5072081 16.5072387,21.987743 11.0000306,21.987743 C5.49276129,21.987743 1.01228759,17.5072387 1.01228759,12 C1.01228759,6.49276129 5.49276129,2.01225698 11,2.01225698 C12.4663524,2.01225698 13.8788354,2.32255758 15.1981791,2.93461923 C15.4517331,3.05224452 15.7526983,2.94205689 15.8703236,2.68853353 C15.9879489,2.43494895 15.8777919,2.13401431 15.6242073,2.01638902 C14.1704347,1.34197954 12.614616,1 11.0000306,1 C8.06181637,1 5.29944322,2.14420666 3.22182494,4.22179433 C1.14417606,6.29941261 0,9.06175516 0,12 C0,14.938153 1.14420666,17.7005262 3.22182494,19.7781445 C5.29947383,21.8557627 8.06178576,23 11.0000306,23 C13.9382142,23 16.7005568,21.8557627 18.7782057,19.7781445 C20.8558239,17.7005262 22,14.938153 22,12 C22,11.0867894 21.8877617,10.1789352 21.6664376,9.30147446 L21.6664376,9.30147446 Z M15.3961914,12.2922698 C15.7296319,12.2922698 16,12.0787918 16,11.8154145 C16,11.5520079 15.7296319,11.3385007 15.3961914,11.3385007 L11.9201456,11.3385007 L11.9201456,10.833006 L15.2613652,7.79658254 C15.4801116,7.59777572 15.453414,7.29653463 15.2017155,7.12379028 C14.9499549,6.95092879 14.5685955,6.97210088 14.349818,7.1709077 L11.3143145,9.92963417 L8.4673125,7.17532953 C8.25643845,6.97131022 7.87604369,6.94091378 7.61771753,7.10747928 C7.35936025,7.27407406 7.32090071,7.57449521 7.53183699,7.7785438 L10.7124973,10.8555837 L10.7124973,11.3384714 L7.60383973,11.3384714 C7.2703681,11.3384714 7,11.5519786 7,11.8153852 C7,12.0787332 7.2703681,12.2922698 7.60383973,12.2922698 L10.7124662,12.2922698 L10.7124662,13.07593 L7.60383973,13.07593 C7.2703681,13.07593 7,13.2894372 7,13.5528438 C7,13.8162797 7.2703681,14.0297576 7.60383973,14.0297576 L10.7124662,14.0297576 L10.7124662,16.5231448 C10.7124662,16.7865221 10.9828343,17 11.3163059,17 C11.6498086,17 11.9201456,16.7865221 11.9201456,16.5231448 L11.9201456,14.0297576 L15.3961914,14.0297576 C15.7296319,14.0297576 16,13.8162797 16,13.5528438 C16,13.2894372 15.7296319,13.07593 15.3961914,13.07593 L11.9201456,13.07593 L11.9201456,12.2922698 L15.3961914,12.2922698 Z M16.3491385,5.94539346 L18.0546015,5.94539346 L18.0546015,7.65086551 C18.0546015,7.84369662 18.2540115,8 18.4999715,8 C18.74596,8 18.9453701,7.84369662 18.9453701,7.65086551 L18.9453701,5.94539346 L20.6508615,5.94539346 C20.8436948,5.94539346 21,5.74601412 21,5.50002847 C21,5.25409976 20.8436948,5.05463501 20.6508615,5.05463501 L18.9453701,5.05463501 L18.9453701,3.34919144 C18.9453701,3.15636032 18.74596,3 18.4999715,3 C18.2540115,3 18.0546015,3.15636032 18.0546015,3.34919144 L18.0546015,5.05463501 L16.3491385,5.05463501 C16.1563052,5.05463501 16,5.25409976 16,5.50002847 C16,5.74601412 16.1563052,5.94539346 16.3491385,5.94539346 L16.3491385,5.94539346 Z" id="Fill-1"></path>
                </g>
            </g>
        </g>
    </g>
</svg>