<?xml version="1.0" encoding="UTF-8"?>
<svg width="26px" height="26px" viewBox="0 0 26 26" version="1.1" xmlns="http://www.w3.org/2000/svg" xmlns:xlink="http://www.w3.org/1999/xlink">
    <!-- Generator: Sketch 46.1 (44463) - http://www.bohemiancoding.com/sketch -->
    <title>充值中心</title>
    <desc>Created with Sketch.</desc>
    <defs></defs>
    <g id="Symbols" stroke="none" stroke-width="1" fill="none" fill-rule="evenodd">
        <g id="充值中心">
            <g id="Group-11">
                <rect id="Rectangle-17" x="0" y="0" width="26" height="26"></rect>
                <g id="Group" transform="translate(2.000000, 3.000000)" fill="#CCCCCC">
                    <path d="M2,1 C1.44771525,1 1,1.44771525 1,2 L1,17.8 C1,18.3522847 1.44771525,18.8 2,18.8 L20,18.8 C20.5522847,18.8 21,18.3522847 21,17.8 L21,2 C21,1.44771525 20.5522847,1 20,1 L2,1 Z M2,0 L20,0 C21.1045695,-2.02906125e-16 22,0.8954305 22,2 L22,17.8 C22,18.9045695 21.1045695,19.8 20,19.8 L2,19.8 C0.8954305,19.8 1.3527075e-16,18.9045695 0,17.8 L0,2 C-1.3527075e-16,0.8954305 0.8954305,2.02906125e-16 2,0 Z" id="Rectangle-48" fill-rule="nonzero"></path>
                    <path d="M15.2,7.6 C14.6477153,7.6 14.2,8.04771525 14.2,8.6 L14.2,11.2 C14.2,11.7522847 14.6477153,12.2 15.2,12.2 L20,12.2 C20.5522847,12.2 21,11.7522847 21,11.2 L21,8.6 C21,8.04771525 20.5522847,7.6 20,7.6 L15.2,7.6 Z M15.2,6.6 L20,6.6 C21.1045695,6.6 22,7.4954305 22,8.6 L22,11.2 C22,12.3045695 21.1045695,13.2 20,13.2 L15.2,13.2 C14.0954305,13.2 13.2,12.3045695 13.2,11.2 L13.2,8.6 C13.2,7.4954305 14.0954305,6.6 15.2,6.6 Z" id="Rectangle-49" fill-rule="nonzero"></path>
                    <circle id="Oval-4" cx="16.5" cy="9.9" r="1.1"></circle>
                </g>
            </g>
        </g>
    </g>
</svg>