<?xml version="1.0" encoding="UTF-8"?>
<svg width="26px" height="26px" viewBox="0 0 26 26" version="1.1" xmlns="http://www.w3.org/2000/svg" xmlns:xlink="http://www.w3.org/1999/xlink">
    <!-- Generator: Sketch 46.1 (44463) - http://www.bohemiancoding.com/sketch -->
    <title>会员中心</title>
    <desc>Created with Sketch.</desc>
    <defs></defs>
    <g id="Symbols" stroke="none" stroke-width="1" fill="none" fill-rule="evenodd">
        <g id="会员中心">
            <rect id="Rectangle-62" x="0" y="0" width="26" height="26"></rect>
            <g id="Group-11" transform="translate(2.000000, 2.000000)" fill="#CCCCCC">
                <path d="M1.33714113,4.53274653 L3.19814314,16.4871555 C3.27396122,16.9741836 3.69334741,17.3333333 4.18624168,17.3333333 L17.8656705,17.3333333 C18.359919,17.3333333 18.7800314,16.9722588 18.8543124,16.4836241 L20.6255157,4.83230122 L17.3942346,7.42967629 C17.3493716,7.4657381 17.3029729,7.49984636 17.2551678,7.53190583 C16.3377915,8.14712499 15.0953775,7.90217829 14.4801583,6.98480205 L11.1297251,1.98884611 L8.76229561,6.76152756 C8.72504319,6.83662755 8.6831058,6.90931106 8.63673164,6.97914794 C8.0257039,7.89932123 6.78442022,8.14993322 5.86424692,7.53890549 L1.33714113,4.53274653 Z M1.89032292,3.69968597 L6.41742871,6.70584492 C6.87751536,7.01135879 7.4981572,6.88605279 7.80367107,6.42596615 C7.82685815,6.39104771 7.84782685,6.35470595 7.86645306,6.31715596 L10.2338826,1.54447451 C10.4793022,1.04971433 11.0793365,0.847583895 11.5740967,1.09300355 C11.7301301,1.17040198 11.863242,1.28721242 11.9602534,1.43186969 L15.3106866,6.42782563 C15.6182962,6.88651375 16.2395032,7.0089871 16.6981914,6.70137752 C16.7220939,6.68534779 16.7452933,6.66829365 16.7677248,6.65026275 L19.9990059,4.05288768 C20.4294641,3.70687587 21.0589174,3.77533321 21.4049292,4.20579142 C21.5803434,4.42401654 21.6562369,4.70578576 21.6141575,4.98259194 L19.8429542,16.6339148 C19.6943923,17.6111842 18.8541675,18.3333333 17.8656705,18.3333333 L4.18624168,18.3333333 C3.20045314,18.3333333 2.36168075,17.6150339 2.2100446,16.6409777 L0.349042583,4.68656872 C0.264088933,4.14085697 0.63760718,3.62960164 1.18331894,3.54464799 C1.43007845,3.50623371 1.6822813,3.56153895 1.89032292,3.69968597 Z" id="Rectangle-5" fill-rule="nonzero"></path>
                <rect id="Rectangle-10" x="2.44444444" y="20.7777778" width="17" height="1" rx="0.5"></rect>
            </g>
        </g>
    </g>
</svg>