<?xml version="1.0" encoding="UTF-8"?>
<svg width="36px" height="36px" viewBox="0 0 36 36" version="1.1" xmlns="http://www.w3.org/2000/svg" xmlns:xlink="http://www.w3.org/1999/xlink">
    <!-- Generator: Sketch 46.1 (44463) - http://www.bohemiancoding.com/sketch -->
    <title>Group 5</title>
    <desc>Created with Sketch.</desc>
    <defs></defs>
    <g id="Page-1" stroke="none" stroke-width="1" fill="none" fill-rule="evenodd">
        <g id="01CRM首页-第一期-默认状态" transform="translate(-525.000000, -399.000000)">
            <g id="Group-6-Copy" transform="translate(495.000000, 317.000000)">
                <g id="Group-8" transform="translate(30.000000, 82.000000)">
                    <g id="Group-5">
                        <circle id="Oval-6" fill="#B0D7EF" cx="18" cy="18" r="18"></circle>
                        <g id="钱包" transform="translate(5.000000, 5.000000)">
                            <g id="Group" transform="translate(2.000000, 3.000000)">
                                <g id="Group-30" transform="translate(2.000000, 9.000000)" fill="#FFFFFF">
                                    <path d="M1.84937798,0.9 C2.76123214,0.9 3.49875595,1.63752381 3.49875595,2.54934524 C3.49875595,3.46116667 2.76123214,4.19872321 1.84937798,4.19872321 C0.93752381,4.19872321 0.2,3.46116667 0.2,2.54934524 C0.2,1.63752381 0.93752381,0.9 1.84937798,0.9" id="Fill-4"></path>
                                </g>
                                <path d="M3.26415538,2.08823572 L3.25837129,5.46571063 L2.08266795,5.46279367 L2.08011319,5.46278951 C1.25168631,5.46214512 0.579591259,6.1331954 0.578946866,6.96162228 L0.570529058,17.7834934 L0.570530644,17.787134 C0.571896863,18.61556 1.24457637,19.2860244 2.07300236,19.2846582 L19.9519271,19.2551727 C20.7770773,19.2538119 21.4461854,18.586239 21.4494417,17.7610941 L21.4602224,16.027918 C21.468536,15.9641221 21.472793,15.8994514 21.4729048,15.8341248 L21.4850586,8.73557008 L21.4918557,7.01315089 L21.4918628,7.01095309 C21.4919422,6.97894884 21.4910261,6.94709589 21.4882262,6.88459757 L21.4913185,5.07832196 C21.492548,4.36017915 20.9846019,3.74191629 20.2798708,3.60376933 L5.05270322,0.618819866 C4.95849226,0.60035189 4.86272588,0.590971148 4.766722,0.590806737 C3.93829609,0.589388018 3.2655741,1.25980981 3.26415538,2.08823572 Z" id="Combined-Shape" stroke="#FFFFFF"></path>
                                <path d="M3.47290039,5.47296143 L18.7261756,5.49612132 L18.7261756,5.49612132 C19.5969689,5.4974435 20.3887254,4.99132792 20.7531128,4.20043945 L20.7531128,4.20043945" id="Line" stroke="#FFFFFF" stroke-linecap="square"></path>
                            </g>
                        </g>
                    </g>
                </g>
            </g>
        </g>
    </g>
</svg>