<?xml version="1.0" encoding="UTF-8"?>
<svg width="9px" height="12px" viewBox="0 0 9 12" version="1.1" xmlns="http://www.w3.org/2000/svg" xmlns:xlink="http://www.w3.org/1999/xlink">
    <!-- Generator: Sketch 46.1 (44463) - http://www.bohemiancoding.com/sketch -->
    <title>Group 36</title>
    <desc>Created with Sketch.</desc>
    <defs></defs>
    <g id="Page-1" stroke="none" stroke-width="1" fill="none" fill-rule="evenodd">
        <g id="01CRM首页-第一期-默认状态" transform="translate(-891.000000, -469.000000)" fill="#FF5D5D">
            <g id="Group-6-Copy" transform="translate(495.000000, 317.000000)">
                <g id="Group-8-Copy-4" transform="translate(260.000000, 82.000000)">
                    <g id="Group-17" transform="translate(46.000000, 69.000000)">
                        <g id="Group-36" transform="translate(90.000000, 1.000000)">
                            <path d="M4.96391909,0.324281262 L8.19068404,3.84438848 L8.19068404,3.84438848 C8.56387645,4.25150747 8.53637352,4.88407484 8.12925453,5.25726725 C7.9448247,5.42632792 7.70372157,5.52011311 7.4535299,5.52011311 L1,5.52011311 L1,5.52011311 C0.44771525,5.52011311 -4.6629367e-15,5.07239786 -4.4408921e-15,4.52011311 C-4.4408921e-15,4.26992144 0.0937851863,4.02881831 0.26284586,3.84438848 L3.48961081,0.324281262 L3.48961081,0.324281262 C3.86280322,-0.082837728 4.49537059,-0.110340657 4.90248958,0.26285175 C4.92384628,0.282428724 4.94434212,0.302924563 4.96391909,0.324281262 Z" id="Combined-Shape"></path>
                            <rect id="Rectangle-50" x="2.72676495" y="4.52011311" width="3" height="7" rx="1"></rect>
                        </g>
                    </g>
                </g>
            </g>
        </g>
    </g>
</svg>