<?xml version="1.0" encoding="UTF-8"?>
<svg width="9px" height="6px" viewBox="0 0 9 6" version="1.1" xmlns="http://www.w3.org/2000/svg" xmlns:xlink="http://www.w3.org/1999/xlink">
    <!-- Generator: Sketch 46.1 (44463) - http://www.bohemiancoding.com/sketch -->
    <title>Shape</title>
    <desc>Created with Sketch.</desc>
    <defs></defs>
    <g id="Page-1" stroke="none" stroke-width="1" fill="none" fill-rule="evenodd">
        <g id="03CRM首页-第一期-门店下拉" transform="translate(-1556.000000, -340.000000)" fill="#0C9AFF">
            <g id="Group-6-Copy" transform="translate(495.000000, 317.000000)">
                <g id="选择器-Select-基本样式-中尺寸" transform="translate(937.000000, 18.000000)">
                    <path d="M132.99,10.281648 C132.99,10.1731906 132.952508,10.0636035 132.877525,9.97209258 L128.883516,5.18415158 C128.786272,5.06778586 128.639822,5 128.483998,5 C128.329346,5 128.181723,5.06778586 128.085651,5.18415158 L124.112731,9.95175682 C123.935818,10.1641525 123.970966,10.4748377 124.191228,10.6454321 C124.41149,10.8160265 124.733682,10.7821336 124.910595,10.5697379 L128.485169,6.28115269 L132.079661,10.5912034 C132.256574,10.8035991 132.578766,10.837492 132.799028,10.6668976 C132.92439,10.5686081 132.99,10.4262578 132.99,10.281648 L132.99,10.281648 Z" id="Shape"></path>
                </g>
            </g>
        </g>
    </g>
</svg>