<?xml version="1.0" encoding="UTF-8"?>
<svg width="9px" height="6px" viewBox="0 0 9 6" version="1.1" xmlns="http://www.w3.org/2000/svg" xmlns:xlink="http://www.w3.org/1999/xlink">
    <!-- Generator: Sketch 46.1 (44463) - http://www.bohemiancoding.com/sketch -->
    <title>Shape</title>
    <desc>Created with Sketch.</desc>
    <defs></defs>
    <g id="Page-1" stroke="none" stroke-width="1" fill="none" fill-rule="evenodd">
        <g id="02CRM首页-第一期-hover状态" transform="translate(-1556.000000, -374.000000)" fill="#C1CED6">
            <g id="Group-6-Copy" transform="translate(495.000000, 351.000000)">
                <g id="选择器-Select-基本样式-中尺寸" transform="translate(1000.000000, 15.000000)">
                    <path d="M69.9899998,13.281648 C69.9899998,13.1731906 69.9525083,13.0636035 69.8775255,12.9720926 L65.8835158,8.18415158 C65.7862724,8.06778586 65.6398215,8 65.4839977,8 C65.3293455,8 65.181723,8.06778586 65.0856512,8.18415158 L61.1127305,12.9517568 C60.9358178,13.1641525 60.970966,13.4748377 61.1912282,13.6454321 C61.4114904,13.8160265 61.7336824,13.7821336 61.9105952,13.5697379 L65.4851693,9.28115269 L69.0796608,13.5912034 C69.2565735,13.8035991 69.5787656,13.837492 69.7990278,13.6668976 C69.9243898,13.5686081 69.9899998,13.4262578 69.9899998,13.281648 L69.9899998,13.281648 Z" id="Shape" transform="translate(65.495000, 10.887801) scale(1, -1) translate(-65.495000, -10.887801) "></path>
                </g>
            </g>
        </g>
    </g>
</svg>