<?xml version="1.0" encoding="UTF-8"?>
<svg width="11px" height="11px" viewBox="0 0 11 11" version="1.1" xmlns="http://www.w3.org/2000/svg" xmlns:xlink="http://www.w3.org/1999/xlink">
    <!-- Generator: Sketch 46.1 (44463) - http://www.bohemiancoding.com/sketch -->
    <title>图标-删除</title>
    <desc>Created with Sketch.</desc>
    <defs></defs>
    <g id="Page-1" stroke="none" stroke-width="1" fill="none" fill-rule="evenodd">
        <g id="03CRM首页-第一期-门店下拉" transform="translate(-1537.000000, -489.000000)" fill="#D0D9E0">
            <g id="Group-2" transform="translate(1065.000000, 389.000000)">
                <g id="Group-14">
                    <g id="图标-删除" transform="translate(472.000000, 100.000000)">
                        <g id="Combined-Shape">
                            <path d="M6.18198052,5.47487373 L7.59619408,4.06066017 C7.79145622,3.86539803 7.79145622,3.54881554 7.59619408,3.35355339 L7.59619408,3.35355339 L7.59619408,3.35355339 C7.40093193,3.15829124 7.08434944,3.15829124 6.8890873,3.35355339 L5.47487373,4.76776695 L4.06066017,3.35355339 C3.86539803,3.15829124 3.54881554,3.15829124 3.35355339,3.35355339 L3.35355339,3.35355339 L3.35355339,3.35355339 C3.15829124,3.54881554 3.15829124,3.86539803 3.35355339,4.06066017 L3.35355339,4.06066017 L4.76776695,5.47487373 L3.35355339,6.8890873 C3.15829124,7.08434944 3.15829124,7.40093193 3.35355339,7.59619408 C3.54881554,7.79145622 3.86539803,7.79145622 4.06066017,7.59619408 L5.47487373,6.18198052 L6.8890873,7.59619408 C7.08434944,7.79145622 7.40093193,7.79145622 7.59619408,7.59619408 C7.79145622,7.40093193 7.79145622,7.08434944 7.59619408,6.8890873 L6.18198052,5.47487373 Z M5.5,11 C2.46243388,11 0,8.53756612 0,5.5 C0,2.46243388 2.46243388,0 5.5,0 C8.53756612,0 11,2.46243388 11,5.5 C11,8.53756612 8.53756612,11 5.5,11 Z"></path>
                        </g>
                    </g>
                </g>
            </g>
        </g>
    </g>
</svg>