<?xml version="1.0" encoding="UTF-8"?>
<svg width="12px" height="12px" viewBox="0 0 12 12" version="1.1" xmlns="http://www.w3.org/2000/svg" xmlns:xlink="http://www.w3.org/1999/xlink">
    <!-- Generator: Sketch 46.1 (44463) - http://www.bohemiancoding.com/sketch -->
    <title>Shape</title>
    <desc>Created with Sketch.</desc>
    <defs></defs>
    <g id="Page-1" stroke="none" stroke-width="1" fill="none" fill-rule="evenodd">
        <g id="03CRM首页-第一期-门店下拉" transform="translate(-1278.000000, -415.000000)" fill="#C1CED6">
            <g id="Group-2" transform="translate(1065.000000, 389.000000)">
                <g id="Group-14">
                    <g id="Group-8" transform="translate(17.000000, 18.000000)">
                        <g id="search" transform="translate(196.000000, 8.000000)">
                            <path d="M11.8438959,0.909232308 L9.11007338,3.6395956 C9.82921948,4.5221642 10.2601734,5.64737251 10.2601734,6.8739029 C10.2601734,9.70558827 7.96397598,12 5.13008672,12 C2.29619746,12 0,9.70558827 0,6.8739029 C0,4.04221753 2.29619746,1.7478058 5.13008672,1.7478058 C6.35223482,1.7478058 7.47431621,2.17442506 8.35490327,2.88767915 L11.0887258,0.155982669 C11.1927952,0.0519942229 11.3288859,0 11.4663109,0 C11.6024016,0 11.7398266,0.0519942229 11.8438959,0.155982669 C12.0520347,0.36395956 12.0520347,0.701255416 11.8438959,0.909232308 L11.8438959,0.909232308 Z M6.75250167,3.03432952 C6.23882588,2.81702033 5.69312875,2.70769914 5.13008672,2.70769914 C4.5670447,2.70769914 4.02134757,2.81835352 3.50767178,3.03432952 C3.01134089,3.2436396 2.56571047,3.54493945 2.1814543,3.9275636 C1.79853235,4.31018776 1.496998,4.7568048 1.28752502,5.25274969 C1.0700467,5.766026 0.960640427,6.31129874 0.960640427,6.8739029 C0.960640427,7.43650705 1.07138092,7.9817798 1.28752502,8.4950561 C1.496998,8.991001 1.79853235,9.43628486 2.1814543,9.8202422 C2.56437625,10.2028663 3.01134089,10.5041662 3.50767178,10.7134763 C4.02134757,10.9307855 4.5670447,11.0401067 5.13008672,11.0401067 C5.69312875,11.0401067 6.23882588,10.9294523 6.75250167,10.7134763 C7.24883256,10.5041662 7.69446298,10.2028663 8.07871915,9.8202422 C8.46164109,9.43761804 8.76317545,8.99233419 8.97264843,8.4950561 C9.19012675,7.9817798 9.29953302,7.43650705 9.29953302,6.8739029 C9.29953302,6.31129874 9.18879253,5.766026 8.97264843,5.25274969 C8.76317545,4.7568048 8.46164109,4.31152094 8.07871915,3.9275636 C7.69446298,3.54493945 7.24883256,3.24497278 6.75250167,3.03432952 L6.75250167,3.03432952 Z" id="Shape" transform="translate(6.000000, 6.000000) scale(1, -1) translate(-6.000000, -6.000000) "></path>
                        </g>
                    </g>
                </g>
            </g>
        </g>
    </g>
</svg>