<?xml version="1.0" encoding="UTF-8"?>
<svg width="8px" height="13px" viewBox="0 0 8 13" version="1.1" xmlns="http://www.w3.org/2000/svg" xmlns:xlink="http://www.w3.org/1999/xlink">
    <!-- Generator: Sketch 46.1 (44463) - http://www.bohemiancoding.com/sketch -->
    <title>Combined Shape</title>
    <desc>Created with Sketch.</desc>
    <defs></defs>
    <g id="Page-1" stroke="none" stroke-width="1" fill="none" fill-rule="evenodd">
        <g id="01CRM首页-第一期-默认状态" transform="translate(-1278.000000, -691.000000)" fill="#C1CED6">
            <g id="Group-6-Copy-2" transform="translate(495.000000, 566.000000)">
                <g id="Group-9-Copy-2" transform="translate(609.000000, 19.000000)">
                    <g id="Group-10" transform="translate(0.000000, 103.000000)">
                        <path d="M178.156854,7.20710678 L183.460155,12.5104076 C183.655417,12.7056698 183.972,12.7056698 184.167262,12.5104076 C184.362524,12.3151455 184.362524,11.998563 184.167262,11.8033009 L178.510408,6.14644661 C178.412777,6.04881554 178.284815,6 178.156854,6 C178.028893,6 177.900932,6.04881554 177.803301,6.14644661 L172.146447,11.8033009 C171.951184,11.998563 171.951184,12.3151455 172.146447,12.5104076 C172.341709,12.7056698 172.658291,12.7056698 172.853553,12.5104076 L178.156854,7.20710678 Z" id="Combined-Shape" transform="translate(178.156854, 9.328427) rotate(-270.000000) translate(-178.156854, -9.328427) "></path>
                    </g>
                </g>
            </g>
        </g>
    </g>
</svg>