<?xml version="1.0" encoding="UTF-8"?>
<svg width="16px" height="16px" viewBox="0 0 16 16" version="1.1" xmlns="http://www.w3.org/2000/svg" xmlns:xlink="http://www.w3.org/1999/xlink">
    <!-- Generator: Sketch 46.1 (44463) - http://www.bohemiancoding.com/sketch -->
    <title>全屏</title>
    <desc>Created with Sketch.</desc>
    <defs></defs>
    <g id="Page-1" stroke="none" stroke-width="1" fill="none" fill-rule="evenodd">
        <g id="CRM首页-第一期" transform="translate(-1572.000000, -21.000000)" fill="#FFFFFF">
            <g id="top">
                <g id="全屏" transform="translate(1572.000000, 21.000000)">
                    <path d="M1,1.70710678 L1,4.5 C1,4.77614237 0.776142375,5 0.5,5 C0.223857625,5 3.38176876e-17,4.77614237 0,4.5 L0,0.5 L0,0.5 C-1.69088438e-17,0.361928813 0.0559644063,0.236928813 0.146446609,0.146446609 C0.236928813,0.0559644063 0.361928813,2.53632657e-17 0.5,0 L0.5,0 L4.5,0 C4.77614237,-5.07265313e-17 5,0.223857625 5,0.5 L5,0.5 C5,0.776142375 4.77614237,1 4.5,1 L1.70710678,1 L6,5.29289322 L6,5.29289322 C6.19526215,5.48815536 6.19526215,5.80473785 6,6 L6,6 C5.80473785,6.19526215 5.48815536,6.19526215 5.29289322,6 L1,1.70710678 Z" id="Combined-Shape"></path>
                    <path d="M10.8535534,1.70710678 L10.8535534,4.5 C10.8535534,4.77614237 10.6296958,5 10.3535534,5 C10.077411,5 9.85355339,4.77614237 9.85355339,4.5 L9.85355339,0.5 L9.85355339,0.5 C9.85355339,0.361928813 9.9095178,0.236928813 10,0.146446609 C10.0904822,0.0559644063 10.2154822,2.53632657e-17 10.3535534,0 L10.3535534,0 L14.3535534,0 C14.6296958,-5.07265313e-17 14.8535534,0.223857625 14.8535534,0.5 L14.8535534,0.5 C14.8535534,0.776142375 14.6296958,1 14.3535534,1 L11.5606602,1 L15.8535534,5.29289322 L15.8535534,5.29289322 C16.0488155,5.48815536 16.0488155,5.80473785 15.8535534,6 L15.8535534,6 C15.6582912,6.19526215 15.3417088,6.19526215 15.1464466,6 L10.8535534,1.70710678 Z" id="Combined-Shape" transform="translate(12.926777, 3.073223) scale(-1, 1) translate(-12.926777, -3.073223) "></path>
                    <path d="M1,11.5606602 L1,14.3535534 C1,14.6296958 0.776142375,14.8535534 0.5,14.8535534 C0.223857625,14.8535534 3.38176876e-17,14.6296958 0,14.3535534 L0,10.3535534 L0,10.3535534 C-1.69088438e-17,10.2154822 0.0559644063,10.0904822 0.146446609,10 C0.236928813,9.9095178 0.361928813,9.85355339 0.5,9.85355339 L0.5,9.85355339 L4.5,9.85355339 C4.77614237,9.85355339 5,10.077411 5,10.3535534 L5,10.3535534 C5,10.6296958 4.77614237,10.8535534 4.5,10.8535534 L1.70710678,10.8535534 L6,15.1464466 L6,15.1464466 C6.19526215,15.3417088 6.19526215,15.6582912 6,15.8535534 L6,15.8535534 C5.80473785,16.0488155 5.48815536,16.0488155 5.29289322,15.8535534 L1,11.5606602 Z" id="Combined-Shape" transform="translate(3.073223, 12.926777) scale(1, -1) translate(-3.073223, -12.926777) "></path>
                    <path d="M10.8535534,11.5606602 L10.8535534,14.3535534 C10.8535534,14.6296958 10.6296958,14.8535534 10.3535534,14.8535534 C10.077411,14.8535534 9.85355339,14.6296958 9.85355339,14.3535534 L9.85355339,10.3535534 L9.85355339,10.3535534 C9.85355339,10.2154822 9.9095178,10.0904822 10,10 C10.0904822,9.9095178 10.2154822,9.85355339 10.3535534,9.85355339 L10.3535534,9.85355339 L14.3535534,9.85355339 C14.6296958,9.85355339 14.8535534,10.077411 14.8535534,10.3535534 L14.8535534,10.3535534 C14.8535534,10.6296958 14.6296958,10.8535534 14.3535534,10.8535534 L11.5606602,10.8535534 L15.8535534,15.1464466 L15.8535534,15.1464466 C16.0488155,15.3417088 16.0488155,15.6582912 15.8535534,15.8535534 L15.8535534,15.8535534 C15.6582912,16.0488155 15.3417088,16.0488155 15.1464466,15.8535534 L10.8535534,11.5606602 Z" id="Combined-Shape" transform="translate(12.926777, 12.926777) scale(-1, -1) translate(-12.926777, -12.926777) "></path>
                </g>
            </g>
        </g>
    </g>
</svg>