<?xml version="1.0" encoding="UTF-8"?>
<svg width="36px" height="36px" viewBox="0 0 36 36" version="1.1" xmlns="http://www.w3.org/2000/svg" xmlns:xlink="http://www.w3.org/1999/xlink">
    <!-- Generator: Sketch 46.1 (44463) - http://www.bohemiancoding.com/sketch -->
    <title>Group 39</title>
    <desc>Created with Sketch.</desc>
    <defs></defs>
    <g id="Page-1" stroke="none" stroke-width="1" fill="none" fill-rule="evenodd">
        <g id="03CRM首页-第一期-门店下拉" transform="translate(-1302.000000, -182.000000)">
            <g id="Group-6" transform="translate(495.000000, 101.000000)">
                <g id="Group-8-Copy-3" transform="translate(807.000000, 81.000000)">
                    <g id="Group-39">
                        <circle id="Oval-6" fill="#FFD5AB" cx="18" cy="18" r="18"></circle>
                        <g id="Page-1" transform="translate(5.000000, 5.000000)" fill="#FFFFFF">
                            <g id="储值">
                                <path d="M23.6664376,10.3014745 C23.59806,10.0304129 23.3228358,9.86617212 23.0518967,9.93442723 C22.7808351,10.0028354 22.6165638,10.2779984 22.6849413,10.5489987 C22.8858195,11.3456246 22.9877124,12.1702872 22.9877124,13 C22.9877124,18.5072081 18.5072387,22.987743 13.0000306,22.987743 C7.49276129,22.987743 3.01228759,18.5072387 3.01228759,13 C3.01228759,7.49276129 7.49276129,3.01225698 13,3.01225698 C14.4663524,3.01225698 15.8788354,3.32255758 17.1981791,3.93461923 C17.4517331,4.05224452 17.7526983,3.94205689 17.8703236,3.68853353 C17.9879489,3.43494895 17.8777919,3.13401431 17.6242073,3.01638902 C16.1704347,2.34197954 14.614616,2 13.0000306,2 C10.0618164,2 7.29944322,3.14420666 5.22182494,5.22179433 C3.14417606,7.29941261 2,10.0617552 2,13 C2,15.938153 3.14420666,18.7005262 5.22182494,20.7781445 C7.29947383,22.8557627 10.0617858,24 13.0000306,24 C15.9382142,24 18.7005568,22.8557627 20.7782057,20.7781445 C22.8558239,18.7005262 24,15.938153 24,13 C24,12.0867894 23.8877617,11.1789352 23.6664376,10.3014745 L23.6664376,10.3014745 Z M17.3961914,13.2922698 C17.7296319,13.2922698 18,13.0787918 18,12.8154145 C18,12.5520079 17.7296319,12.3385007 17.3961914,12.3385007 L13.9201456,12.3385007 L13.9201456,11.833006 L17.2613652,8.79658254 C17.4801116,8.59777572 17.453414,8.29653463 17.2017155,8.12379028 C16.9499549,7.95092879 16.5685955,7.97210088 16.349818,8.1709077 L13.3143145,10.9296342 L10.4673125,8.17532953 C10.2564384,7.97131022 9.87604369,7.94091378 9.61771753,8.10747928 C9.35936025,8.27407406 9.32090071,8.57449521 9.53183699,8.7785438 L12.7124973,11.8555837 L12.7124973,12.3384714 L9.60383973,12.3384714 C9.2703681,12.3384714 9,12.5519786 9,12.8153852 C9,13.0787332 9.2703681,13.2922698 9.60383973,13.2922698 L12.7124662,13.2922698 L12.7124662,14.07593 L9.60383973,14.07593 C9.2703681,14.07593 9,14.2894372 9,14.5528438 C9,14.8162797 9.2703681,15.0297576 9.60383973,15.0297576 L12.7124662,15.0297576 L12.7124662,17.5231448 C12.7124662,17.7865221 12.9828343,18 13.3163059,18 C13.6498086,18 13.9201456,17.7865221 13.9201456,17.5231448 L13.9201456,15.0297576 L17.3961914,15.0297576 C17.7296319,15.0297576 18,14.8162797 18,14.5528438 C18,14.2894372 17.7296319,14.07593 17.3961914,14.07593 L13.9201456,14.07593 L13.9201456,13.2922698 L17.3961914,13.2922698 Z M18.3491385,6.94539346 L20.0546015,6.94539346 L20.0546015,8.65086551 C20.0546015,8.84369662 20.2540115,9 20.4999715,9 C20.74596,9 20.9453701,8.84369662 20.9453701,8.65086551 L20.9453701,6.94539346 L22.6508615,6.94539346 C22.8436948,6.94539346 23,6.74601412 23,6.50002847 C23,6.25409976 22.8436948,6.05463501 22.6508615,6.05463501 L20.9453701,6.05463501 L20.9453701,4.34919144 C20.9453701,4.15636032 20.74596,4 20.4999715,4 C20.2540115,4 20.0546015,4.15636032 20.0546015,4.34919144 L20.0546015,6.05463501 L18.3491385,6.05463501 C18.1563052,6.05463501 18,6.25409976 18,6.50002847 C18,6.74601412 18.1563052,6.94539346 18.3491385,6.94539346 L18.3491385,6.94539346 Z" id="Fill-1"></path>
                            </g>
                        </g>
                    </g>
                </g>
            </g>
        </g>
    </g>
</svg>