<?xml version="1.0" encoding="UTF-8"?>
<svg width="36px" height="36px" viewBox="0 0 36 36" version="1.1" xmlns="http://www.w3.org/2000/svg" xmlns:xlink="http://www.w3.org/1999/xlink">
    <!-- Generator: Sketch 47.1 (45422) - http://www.bohemiancoding.com/sketch -->
    <title>粉丝</title>
    <desc>Created with Sketch.</desc>
    <defs></defs>
    <g id="Symbols" stroke="none" stroke-width="1" fill="none" fill-rule="evenodd">
        <g id="粉丝">
            <g id="Group-39">
                <circle id="Oval-6" fill="#FFD5AB" cx="18" cy="18" r="18"></circle>
                <g id="粉丝" transform="translate(5.000000, 5.000000)" fill-rule="nonzero" fill="#FFFFFF">
                    <g id="粉丝_1">
                        <path d="M18.5330904,22 C18.4262488,22 18.3194071,21.9757222 18.2247759,21.9271665 C16.3565728,21.0015744 15.0897357,19.8878291 14.4639488,18.6193127 C13.9846875,17.6542692 14.0548978,16.941108 14.0732135,16.7984758 C14.0640556,16.495003 14.1922656,15.4935426 14.8607893,14.8259024 C15.2912086,14.394971 15.8528906,14.1764706 16.5244669,14.1764706 C17.525726,14.1764706 18.1667761,14.6468535 18.5330904,15.0535071 C18.9024574,14.6529229 19.5435075,14.1855748 20.5172931,14.1764706 C21.2163429,14.1764706 21.793288,14.4010405 22.2359178,14.8410761 C22.8006524,15.4025008 22.9990726,16.1975996 22.9990726,16.7529549 C23.020441,17.7210332 22.6724424,18.6557295 21.9642347,19.5327659 C21.2682374,20.3946288 20.221189,21.195797 18.8566681,21.9150276 C18.7589843,21.9726874 18.6460374,22 18.5330904,22 L18.5330904,22 Z M16.350375,15.2975251 C16.0287104,15.2975251 15.7866329,15.3861191 15.6075619,15.570122 C15.2825811,15.9040531 15.1797811,16.5412482 15.1830972,16.7968077 L15.1830972,16.8172525 C15.1466198,17.1716284 15.1433037,19.0321019 18.5224403,20.8823529 C20.7210346,19.6079627 21.9148415,18.1257174 21.8816802,16.7150287 C21.8816802,16.5855452 21.8617834,16.2516141 21.7258221,15.9381277 C21.5368027,15.5121951 21.2018735,15.2941176 20.7243508,15.2941176 C19.6167633,15.30434 19.2752019,16.3674677 19.2420406,16.4901363 C19.1591373,16.7968077 18.8838985,17.0114778 18.5224403,17.0523673 L18.5025435,17.0523673 C18.157666,17.0455524 17.8658465,16.8002152 17.7862594,16.4594692 C17.7530981,16.340208 17.4745432,15.2975251 16.350375,15.2975251 L16.350375,15.2975251 Z M4.65258724,22 C4.29323303,22 4,21.7004637 4,21.3333849 C4,19.7916538 4.65258724,18.1735703 5.83989355,16.7757342 C6.91508134,15.5100464 8.35824784,14.4998454 9.91353286,13.9272025 C9.10857943,13.4485317 8.42436902,12.7731066 7.92989762,11.9684699 C7.35780572,11.037558 7.05307336,9.96275116 7.05307336,8.86151468 C7.05307336,5.62828439 9.62892432,3 12.7912414,3 C15.9564332,3 18.5294094,5.63122102 18.5294094,8.86151468 C18.5322842,12.094745 15.9564332,14.725966 12.7912414,14.725966 C11.0232187,14.725966 9.15170193,15.4865533 7.65391359,16.8139104 C6.16187492,18.1353941 5.30517449,19.7828439 5.30517449,21.3363215 C5.30517449,21.7004637 5.01481628,22 4.65258724,22 Z M12.7411679,4.32475011 C10.2739375,4.32475011 8.27058119,6.33100631 8.27058119,8.79533835 C8.27058119,11.2625696 10.2768367,13.2659266 12.7411679,13.2659266 C15.2083982,13.2659266 17.2117545,11.2596704 17.2117545,8.79533835 C17.2146537,6.33100631 15.2083982,4.32475011 12.7411679,4.32475011 Z" id="Shape"></path>
                    </g>
                </g>
            </g>
        </g>
    </g>
</svg>