<?xml version="1.0" encoding="UTF-8"?>
<svg width="18px" height="18px" viewBox="0 0 18 18" version="1.1" xmlns="http://www.w3.org/2000/svg" xmlns:xlink="http://www.w3.org/1999/xlink">
    <!-- Generator: Sketch 47.1 (45422) - http://www.bohemiancoding.com/sketch -->
    <title>Shape Copy 5</title>
    <desc>Created with Sketch.</desc>
    <defs></defs>
    <g id="Symbols" stroke="none" stroke-width="1" fill="none" fill-rule="evenodd">
        <g id="配置" transform="translate(-11.000000, -5.000000)">
            <g id="Group-8" transform="translate(11.000000, 5.000000)">
                <g id="Shape-Copy-5">
                    <g id="图标点击后-系统设置" transform="translate(0.538462, 0.538462)">
                        <rect id="Rectangle-13-Copy-2" x="0" y="0" width="16.9230769" height="16.9230769"></rect>
                        <path d="M10.8945973,1.40277055 C10.2573645,2.0535788 9.38539073,2.42214655 8.46178053,2.42214655 C7.53738084,2.42214655 6.66521373,2.05336505 6.02844872,1.40295636 L3.40582909,2.91590989 C3.64596114,3.79429349 3.52719368,4.73208289 3.06474707,5.53170987 C2.60852472,6.32057434 1.86673111,6.88832482 1.00009066,7.1211826 L1.00009066,10.1483739 C1.86768031,10.3825728 2.60896912,10.9491948 3.06507028,11.73785 C3.51402672,12.5153093 3.63860414,13.4295132 3.42115476,14.2900817 L6.07541303,15.8184737 C6.71011604,15.1962406 7.56326084,14.8450691 8.46178053,14.8450691 C9.35995226,14.8450691 10.2127393,15.1961775 10.8474962,15.8181933 L13.5021085,14.2865351 C13.2845639,13.4263225 13.4091437,12.5115199 13.8584085,11.7338984 C14.3141243,10.9455366 15.0553122,10.3790579 15.9231694,10.1448111 L15.9231857,7.11971925 C15.0573289,6.88696374 14.315704,6.31966505 13.8577798,5.53179716 C13.3943249,4.73108368 13.275485,3.79375646 13.5157181,2.91425295 L10.8945973,1.40277055 Z M14.722353,5.02929029 C15.0875405,5.65760267 15.7043621,6.08718746 16.4159628,6.20440104 C16.7075677,6.25259546 16.9213507,6.50189743 16.9231676,6.78987394 L16.9231676,10.4713918 C16.9231676,10.7635332 16.7093846,11.0107527 16.4180825,11.0592447 C15.7043621,11.1782432 15.0875405,11.6057455 14.7241699,12.2343554 C14.364433,12.8570153 14.2984207,13.6028388 14.5443014,14.2775606 C14.6427143,14.5473898 14.5330975,14.8466712 14.2811606,14.991552 L11.0807741,16.8381121 C10.8236894,16.9868603 10.4960502,16.929146 10.3067947,16.7042387 C9.8468281,16.1574403 9.17519812,15.8450691 8.46178053,15.8450691 C7.74806012,15.8450691 7.07612733,16.1574403 6.61646353,16.7042387 C6.49715685,16.8455495 6.32485863,16.9199236 6.1489267,16.9199236 C6.04294361,16.9199236 5.93877738,16.8937439 5.84218136,16.8381121 L2.64209768,14.9954194 C2.39228039,14.8502412 2.28054394,14.5509598 2.37895681,14.2814281 C2.62483757,13.6064088 2.55882525,12.8608828 2.19908836,12.2379254 C1.83571777,11.609613 1.21889619,11.1818132 0.505175783,11.0628146 C0.213873691,11.0146202 9.06593407e-05,10.7653182 9.06593407e-05,10.4752592 L9.06593407e-05,6.79374139 C9.06593407e-05,6.50189743 0.213873691,6.25438044 0.505175783,6.20618602 C1.21889619,6.08897244 1.83571777,5.65938765 2.19908836,5.03107527 C2.57002918,4.38967305 2.62877409,3.6271898 2.36199951,2.93937814 C2.25601642,2.66776394 2.36563322,2.36104516 2.62120387,2.21408194 L5.80251341,0.378826701 C6.06383742,0.228293527 6.39692713,0.291660258 6.58406299,0.52400494 C7.04221274,1.09490052 7.72716631,1.42214655 8.46178053,1.42214655 C9.19578912,1.42214655 9.8810455,1.09490052 10.3388924,0.52400494 C10.5263311,0.28987528 10.8594208,0.228293527 11.1207448,0.378826701 L14.3002375,2.21229696 C14.5555054,2.35926018 14.665425,2.66597896 14.5594419,2.93759317 C14.2926673,3.62540482 14.3511094,4.38788807 14.722353,5.02929029 Z" id="Fill-1" fill="#9AABB8" fill-rule="nonzero"></path>
                        <path d="M8.46153846,11.7820513 C6.62766987,11.7820513 5.14102564,10.2954071 5.14102564,8.46153846 C5.14102564,6.62766987 6.62766987,5.14102564 8.46153846,5.14102564 C10.2954071,5.14102564 11.7820513,6.62766987 11.7820513,8.46153846 C11.7820513,10.2954071 10.2954071,11.7820513 8.46153846,11.7820513 Z M8.46153846,10.7820513 C9.7431223,10.7820513 10.7820513,9.7431223 10.7820513,8.46153846 C10.7820513,7.17995462 9.7431223,6.14102564 8.46153846,6.14102564 C7.17995462,6.14102564 6.14102564,7.17995462 6.14102564,8.46153846 C6.14102564,9.7431223 7.17995462,10.7820513 8.46153846,10.7820513 Z" id="Oval-20" fill="#9AABB8" fill-rule="nonzero"></path>
                    </g>
                </g>
            </g>
        </g>
    </g>
</svg>