<?xml version="1.0" encoding="UTF-8"?>
<svg width="36px" height="36px" viewBox="0 0 36 36" version="1.1" xmlns="http://www.w3.org/2000/svg" xmlns:xlink="http://www.w3.org/1999/xlink">
    <!-- Generator: Sketch 47.1 (45422) - http://www.bohemiancoding.com/sketch -->
    <title>会员数量</title>
    <desc>Created with Sketch.</desc>
    <defs></defs>
    <g id="Symbols" stroke="none" stroke-width="1" fill="none" fill-rule="evenodd">
        <g id="会员数量">
            <circle id="Oval-6" fill="#F8C1C1" cx="18" cy="18" r="18"></circle>
            <g id="会员" transform="translate(5.000000, 5.000000)">
                <rect id="Rectangle-23" x="0" y="0" width="26" height="26"></rect>
                <path d="M19.7510494,11.9464509 C19.1119729,12.448911 18.1889498,12.3508303 17.6697351,11.7252897 L13.4819593,6.67993356 C13.461988,6.65587259 13.4398037,6.63373812 13.4156979,6.61382107 C13.202818,6.43793253 12.887659,6.46791993 12.7117704,6.68079979 L8.5324505,11.7390774 C8.02331151,12.355294 7.12039398,12.4640008 6.47954518,11.986237 L3.2990794,9.61514509 C3.18531805,9.53033405 3.04087911,9.49785325 2.90176173,9.52579801 C2.63102734,9.58018092 2.45563981,9.84374057 2.51002273,10.114475 L4.71614441,21.0972079 C4.76304872,21.3307115 4.96814445,21.4987199 5.20631239,21.4987389 L20.9685735,21.5000001 C21.2096255,21.5000193 21.4163753,21.328048 21.4602583,21.0910241 L23.4916188,10.1191117 C23.5177839,9.97778745 23.4818679,9.83203806 23.393035,9.71905194 C23.2223593,9.50197035 22.9080199,9.46435096 22.6909383,9.63502667 L19.7510494,11.9464509 Z" id="Path-2" stroke="#FFFFFF"></path>
                <circle id="Oval" stroke="#FFFFFF" cx="13" cy="5" r="1.5"></circle>
            </g>
        </g>
    </g>
</svg>