<?xml version="1.0" encoding="UTF-8"?>
<svg width="36px" height="36px" viewBox="0 0 36 36" version="1.1" xmlns="http://www.w3.org/2000/svg" xmlns:xlink="http://www.w3.org/1999/xlink">
    <!-- Generator: Sketch 47.1 (45422) - http://www.bohemiancoding.com/sketch -->
    <title>今日新增会员</title>
    <desc>Created with Sketch.</desc>
    <defs></defs>
    <g id="Symbols" stroke="none" stroke-width="1" fill="none" fill-rule="evenodd">
        <g id="今日新增会员">
            <circle id="Oval-5" fill="#CDD1FF" cx="18" cy="18" r="18"></circle>
            <g transform="translate(5.000000, 5.000000)">
                <rect id="Rectangle-23" x="0" y="0" width="26" height="26"></rect>
                <path d="M17.2816843,12.035634 L13.0975321,6.98830187 L8.92180438,12.0485897 C8.24285933,12.8713582 7.03768227,13.0164645 6.18284533,12.3783671 L3.00632011,10.0072338 L5.21142977,20.9987385 L20.9641656,21.0000005 L22.9945821,10.019391 L20.0585193,12.330711 C19.2060766,13.0017687 17.9740646,12.8708505 17.2816843,12.035634 Z M22.3760305,9.23364678 C22.809985,8.89203018 23.4387097,8.96688487 23.7803263,9.4008394 C23.9582134,9.62680888 24.0302036,9.91842526 23.9779126,10.2012179 L21.9474962,21.1818274 C21.8598213,21.6559784 21.4462744,22.0000391 20.9640855,22.0000005 L5.21134966,21.9987385 C4.73492264,21.9987003 4.32467931,21.662558 4.23096607,21.1954386 L2.02585641,10.2039339 C1.91722195,9.66243879 2.26812487,9.13540461 2.80962002,9.02677014 C3.0879913,8.97092345 3.37697952,9.03603818 3.60450046,9.20587234 L6.78102568,11.5770056 C7.20844415,11.8960543 7.81103268,11.8235011 8.15050521,11.4121169 L12.326233,6.3518291 C12.6777472,5.92585233 13.3080281,5.86548849 13.7340049,6.21700269 C13.7825594,6.25706964 13.827222,6.30163192 13.867398,6.35009617 L18.0515502,11.3974283 C18.3977404,11.8150365 19.0137464,11.8804957 19.4399677,11.5449668 L22.3760305,9.23364678 Z" id="Path-2" fill="#FFFFFF" fill-rule="nonzero"></path>
                <path d="M13,6 C13.5522847,6 14,5.55228475 14,5 C14,4.44771525 13.5522847,4 13,4 C12.4477153,4 12,4.44771525 12,5 C12,5.55228475 12.4477153,6 13,6 Z M13,7 C11.8954305,7 11,6.1045695 11,5 C11,3.8954305 11.8954305,3 13,3 C14.1045695,3 15,3.8954305 15,5 C15,6.1045695 14.1045695,7 13,7 Z" id="Oval" fill="#FFFFFF" fill-rule="nonzero"></path>
                <rect id="Rectangle-77" fill="#FFFFFF" x="9" y="15" width="8" height="1" rx="0.5"></rect>
                <rect id="Rectangle-77" fill="#FFFFFF" transform="translate(13.000000, 15.500000) rotate(-270.000000) translate(-13.000000, -15.500000) " x="9" y="15" width="8" height="1" rx="0.5"></rect>
            </g>
        </g>
    </g>
</svg>