<?xml version="1.0" encoding="UTF-8"?>
<svg width="36px" height="36px" viewBox="0 0 36 36" version="1.1" xmlns="http://www.w3.org/2000/svg" xmlns:xlink="http://www.w3.org/1999/xlink">
    <!-- Generator: Sketch 47.1 (45422) - http://www.bohemiancoding.com/sketch -->
    <title>新增粉丝</title>
    <desc>Created with Sketch.</desc>
    <defs></defs>
    <g id="Symbols" stroke="none" stroke-width="1" fill="none" fill-rule="evenodd">
        <g id="新增粉丝">
            <g id="今日新增粉丝">
                <g>
                    <circle id="Oval-6" fill="#FFE0A6" cx="18" cy="18" r="18"></circle>
                    <g id="图标-机构人员管理" stroke-width="1" transform="translate(8.000000, 7.000000)" fill="#FFFFFF">
                        <path d="M10,11 C12.7614237,11 15,8.76142375 15,6 C15,3.23857625 12.7614237,1 10,1 C7.23857625,1 5,3.23857625 5,6 C5,8.76142375 7.23857625,11 10,11 Z M10,12 C6.6862915,12 4,9.3137085 4,6 C4,2.6862915 6.6862915,0 10,0 C13.3137085,0 16,2.6862915 16,6 C16,9.3137085 13.3137085,12 10,12 Z" id="Oval" fill-rule="nonzero"></path>
                        <rect id="Rectangle-77" x="14" y="15" width="7" height="1" rx="0.5"></rect>
                        <path d="M18,12.4375 L18,18.5625 C18,18.8041246 17.7761424,19 17.5,19 C17.2238576,19 17,18.8041246 17,18.5625 L17,12.4375 C17,12.1958754 17.2238576,12 17.5,12 C17.7761424,12 18,12.1958754 18,12.4375 Z" id="Rectangle-77"></path>
                        <path d="M7.37669558,10.8058807 C7.38099185,10.8024903 7.38034056,10.8030621 7.36752794,10.8171187 C7.34046632,10.8452308 7.34046632,10.8452308 7.28168958,10.9562834 C7.21224441,11.2333301 7.21224441,11.2333301 7.50868241,11.5749745 C7.26529209,11.44453 7.1737314,11.141477 7.30417589,10.8980867 C7.31826738,10.8717941 7.33437317,10.8472732 7.35220045,10.8246127 C7.36153216,10.8176482 7.36970661,10.8113961 7.37669558,10.8058807 Z M7.98106368,10.6935802 C8.28250793,11.0398957 8.28250793,11.0398957 8.21093656,11.3257425 C8.1464674,11.44766 8.1464674,11.44766 8.10658091,11.490766 C8.07429099,11.5261911 8.03989749,11.5563897 7.99618667,11.5908844 C7.93631045,11.6381361 7.85107006,11.6987244 7.7365631,11.776015 C7.52053048,11.9218342 7.19199739,12.132483 6.74906459,12.4093047 C5.8693984,12.9590736 4.53406163,13.7725733 2.74220882,14.850348 C2.63158977,14.916912 2.5509921,15.0236406 2.51726664,15.1482087 L1.52390592,18.8172783 C1.45176388,19.0838347 1.60934265,19.3584055 1.8758664,19.4305639 C1.91746433,19.4418261 1.96034385,19.4476625 2.00343856,19.447928 C6.34816345,19.474699 9.60359023,19.4911476 11.7695088,19.4972737 C12.8517766,19.5003348 13.6617633,19.5008175 14.1990417,19.4987252 C14.4662686,19.4976846 14.6655189,19.4960073 14.7959098,19.4937167 C14.8791756,19.4920306 14.883223,19.4919486 14.9239113,19.4904183 C15.0916624,19.4647911 15.2683022,19.525225 15.3845959,19.6652979 C15.5207587,20.1862227 15.5207587,20.1862227 15.2708631,20.4054223 C15.1594781,20.4620934 15.1594781,20.4620934 15.1180107,20.4713612 C15.0649984,20.4821561 15.0649984,20.4821561 15.042384,20.4844719 C15.0065338,20.4876403 15.0065338,20.4876403 14.976266,20.4891219 C14.9086618,20.4916646 14.9086618,20.4916646 14.8134746,20.4935624 C14.6775618,20.4959501 14.4743431,20.4976607 14.2029358,20.4987176 C13.6629458,20.5008204 12.851003,20.5003366 11.7666804,20.4972697 C9.59941829,20.4911398 6.34302049,20.4746863 1.99727695,20.4479091 C1.86798443,20.4471124 1.73933753,20.4296019 1.61453564,20.3958132 C0.814940861,20.1793316 0.34222171,19.3556492 0.558645091,18.5559901 L1.55201733,14.8868779 C1.65318394,14.5132097 1.89490644,14.1931174 2.2266969,13.9934656 C4.0141574,12.9183328 5.34526066,12.1074122 6.21908119,11.5612967 C6.65289176,11.2901761 6.97286371,11.0850166 7.17709781,10.9471613 C7.25423037,10.8950978 7.31328055,10.8536595 7.35220045,10.8246127 C7.49939977,10.6375051 7.76396602,10.5772272 7.98106368,10.6935802 Z" id="Path-2" fill-rule="nonzero"></path>
                    </g>
                </g>
            </g>
        </g>
    </g>
</svg>