<?xml version="1.0" encoding="UTF-8"?>
<svg width="40px" height="34px" viewBox="0 0 40 34" version="1.1" xmlns="http://www.w3.org/2000/svg" xmlns:xlink="http://www.w3.org/1999/xlink">
    <!-- Generator: Sketch 47.1 (45422) - http://www.bohemiancoding.com/sketch -->
    <title>微信</title>
    <desc>Created with Sketch.</desc>
    <defs></defs>
    <g id="Page-1" stroke="none" stroke-width="1" fill="none" fill-rule="evenodd">
        <g id="微信" transform="translate(0.000000, 0.587629)" fill-rule="nonzero" fill="#ffffff">
            <path d="M27.8018522,10.1152156 C28.0024784,10.1152156 28.2031047,10.1202313 28.4037309,10.1302626 C27.3504432,4.40739959 21.442001,0.0237166186 14.3047231,0.0237166186 C6.42512825,0.0237166186 0.0401987216,5.36538977 0.0401987216,11.9509455 C0.0401987216,15.8130003 2.23705584,19.2487244 5.63767031,21.4305345 C5.68281122,21.4606285 5.76807736,21.510785 5.76807736,21.510785 L4.38877208,25.8292645 L9.54486598,23.2010609 C9.54486598,23.2010609 9.70536697,23.2462019 9.78561744,23.2712801 C11.205048,23.6675169 12.719776,23.8781744 14.2997075,23.8781744 C14.6207094,23.8781744 14.9417114,23.8681431 15.2576977,23.8480805 C14.9667896,22.9402468 14.8062887,21.9872723 14.8062887,20.9991881 C14.8113043,14.9904328 20.6294647,10.1152156 27.8018522,10.1152156 L27.8018522,10.1152156 Z M19.2652065,5.90206491 C20.3736664,5.90206491 21.266453,6.76977332 21.266453,7.84312363 C21.266453,8.91145827 20.3736664,9.78418231 19.2652065,9.78418231 C18.1567466,9.78418231 17.2639599,8.9164739 17.2639599,7.84312363 C17.2639599,6.76977332 18.1617622,5.90206495 19.2652065,5.90206491 L19.2652065,5.90206491 Z M9.33922412,9.78418231 C8.23076425,9.78418231 7.33797757,8.9164739 7.33797757,7.84312363 C7.33797757,6.76977332 8.23577992,5.90206495 9.33922412,5.90206491 C10.447684,5.90206491 11.3454864,6.76977332 11.3454864,7.84312363 C11.3454864,8.91647394 10.447684,9.78418231 9.33922412,9.78418231 Z" id="Shape"></path>
            <path d="M15.8595763,21.074423 C15.8595763,26.6418006 21.2564217,31.1558906 27.9121966,31.1558906 C29.246361,31.1558906 30.5253532,30.9753271 31.7240948,30.6392781 C31.794314,30.6192155 31.9297367,30.5790902 31.9297367,30.5790903 L36.2833258,32.8010256 L35.1196937,29.1546441 C35.1196937,29.1546441 35.1949285,29.1095032 35.2300381,29.0844249 C38.1040087,27.2436793 39.9598013,24.3446304 39.9598013,21.0794386 C39.9598013,15.512061 34.5629559,10.997971 27.9121966,10.997971 C21.2564217,10.997971 15.8595763,15.512061 15.8595763,21.074423 Z M30.4099931,17.6035893 C30.4099931,16.7007713 31.1673571,15.9684856 32.100269,15.9684856 C33.0381966,15.9684856 33.7955606,16.7007713 33.7955606,17.6035893 C33.7955606,18.511423 33.0381966,19.2437087 32.100269,19.2437087 C31.1673571,19.2437087 30.4099931,18.511423 30.4099931,17.6035893 Z M22.023817,17.6035893 C22.023817,16.7007713 22.781181,15.9684856 23.7140929,15.9684856 C24.6470049,15.9684856 25.4093845,16.7007713 25.4093845,17.6035893 C25.4093845,18.511423 24.6520205,19.2437087 23.7140929,19.2437087 C22.781181,19.2437087 22.023817,18.511423 22.023817,17.6035893 Z" id="Shape"></path>
        </g>
    </g>
</svg>