<?xml version="1.0" encoding="utf-8"?>
<!-- Generator: Adobe Illustrator 19.0.0, SVG Export Plug-In . SVG Version: 6.00 Build 0)  -->
<svg version="1.1" id="图层_1" xmlns="http://www.w3.org/2000/svg" xmlns:xlink="http://www.w3.org/1999/xlink" x="0px" y="0px"
	 viewBox="-442 434 16 16" style="enable-background:new -442 434 16 16;" xml:space="preserve">
<style type="text/css">
	.st0{fill:none;}
	.st1{fill:#9AABB8;}
</style>
<title>消息模版</title>
<desc>Created with Sketch.</desc>
<g>
	<rect id="Rectangle" x="-442" y="434" class="st0" width="16" height="16"/>
</g>
<g id="消息_xFF08_线_xFF09_" transform="translate(1.000000, 1.734375)">
	<path id="Shape" class="st1" d="M-442,445.9v-10.1c0-1,0.8-1.8,1.8-1.8h10.3c1,0,1.8,0.8,1.8,1.8v7.3c0,0.5-0.2,0.9-0.5,1.3
		s-0.8,0.5-1.3,0.5h-8.2c-0.3,0-0.6,0.1-0.9,0.2l-2.2,1.2c-0.2,0.1-0.4,0.1-0.6,0S-442,446.1-442,445.9z M-439.6,444.3
		c0.4-0.3,1-0.4,1.5-0.4h8.4c0.2,0,0.4-0.1,0.5-0.2c0.1-0.1,0.2-0.3,0.2-0.5v-7.5c0-0.2-0.1-0.4-0.2-0.5c-0.1-0.1-0.3-0.2-0.5-0.2
		h-10.5c-0.2,0-0.4,0.1-0.5,0.2c-0.1,0.1-0.2,0.3-0.2,0.5v9.4L-439.6,444.3L-439.6,444.3z M-437.2,437.7h5c0.3,0,0.5,0.2,0.5,0.5
		s-0.2,0.5-0.5,0.5h-5c-0.3,0-0.5-0.2-0.5-0.5S-437.5,437.7-437.2,437.7z M-437.2,440.3h3c0.3,0,0.5,0.2,0.5,0.5
		c0,0.3-0.2,0.5-0.5,0.5h-3c-0.3,0-0.5-0.2-0.5-0.5C-437.7,440.5-437.5,440.3-437.2,440.3z"/>
</g>
</svg>
