<?xml version="1.0" encoding="UTF-8"?>
<svg width="14px" height="13px" viewBox="0 0 14 13" version="1.1" xmlns="http://www.w3.org/2000/svg" xmlns:xlink="http://www.w3.org/1999/xlink">
    <!-- Generator: Sketch 47.1 (45422) - http://www.bohemiancoding.com/sketch -->
    <title>删除</title>
    <desc>Created with Sketch.</desc>
    <defs></defs>
    <g id="crm-3期" stroke="none" stroke-width="1" fill="none" fill-rule="evenodd">
        <g id="05-会员唤醒活动编辑页" transform="translate(-720.000000, -474.000000)">
            <g id="Group-8" transform="translate(215.000000, 421.000000)">
                <g id="删除" transform="translate(503.000000, 51.000000)">
                    <rect id="Rectangle" x="0" y="0" width="18" height="18"></rect>
                    <g id="Group-9" transform="translate(2.000000, 2.000000)">
                        <rect id="Rectangle-10" fill="#939CA2" x="3.9375" y="4.33333333" width="1" height="6.06666667" rx="0.5"></rect>
                        <rect id="Rectangle-10-Copy" fill="#939CA2" x="6.5625" y="4.33333333" width="1" height="6.06666667" rx="0.5"></rect>
                        <rect id="Rectangle-10-Copy-2" fill="#939CA2" x="9.1875" y="4.33333333" width="1" height="6.06666667" rx="0.5"></rect>
                        <rect id="Rectangle-3" fill="#939CA2" x="0" y="1.73333333" width="14" height="1" rx="0.5"></rect>
                        <path d="M1.8125,2.23333333 L1.8125,12.125 C1.8125,12.3321068 1.98039322,12.5 2.1875,12.5 L11.8125,12.5 C12.0196068,12.5 12.1875,12.3321068 12.1875,12.125 L12.1875,2.23333333 L1.8125,2.23333333 Z" id="Rectangle-6" stroke="#939CA2"></path>
                        <path d="M4,2.1 L10,2.1 L10,0.875 C10,0.667893219 9.83210678,0.5 9.625,0.5 L4.375,0.5 C4.16789322,0.5 4,0.667893219 4,0.875 L4,2.1 Z" id="Rectangle-9" stroke="#939CA2"></path>
                    </g>
                </g>
            </g>
        </g>
    </g>
</svg>