<?xml version="1.0" encoding="UTF-8"?>
<svg width="22px" height="22px" viewBox="0 0 22 22" version="1.1" xmlns="http://www.w3.org/2000/svg" xmlns:xlink="http://www.w3.org/1999/xlink">
    <!-- Generator: Sketch 46.1 (44463) - http://www.bohemiancoding.com/sketch -->
    <title>Group 11</title>
    <desc>Created with Sketch.</desc>
    <defs></defs>
    <g id="Page-1" stroke="none" stroke-width="1" fill="none" fill-rule="evenodd">
        <g id="01CRM首页-第一期-默认状态" transform="translate(-869.000000, -614.000000)">
            <g id="Group-6-Copy-2" transform="translate(495.000000, 532.000000)">
                <g id="Group-31" transform="translate(374.000000, 82.000000)">
                    <g id="Group-11">
                        <rect id="Rectangle-5" fill="#FFFFFF" x="10" y="0" width="1" height="1"></rect>
                        <rect id="Rectangle-5-Copy" fill="#FFFFFF" x="10" y="21" width="1" height="1"></rect>
                        <path d="M3.19362677,2.99743125 L3.18784269,6.37490615 L2.01213934,6.3719892 L2.00958458,6.37198504 C1.18115771,6.37134064 0.509062654,7.04239093 0.508418261,7.87081781 L0.500000454,18.692689 L0.50000204,18.6963295 C0.501368259,19.5247555 1.17404776,20.1952199 2.00247376,20.1938537 L19.8813985,20.1643682 C20.7065487,20.1630074 21.3756568,19.4954345 21.378913,18.6702896 L21.3896938,16.9371135 C21.3980074,16.8733176 21.4022644,16.8086469 21.4023762,16.7433203 L21.41453,9.6447656 L21.4213271,7.92234641 L21.4213342,7.92014862 C21.4214136,7.88814437 21.4204974,7.85629142 21.4176976,7.7937931 L21.4207899,5.98751749 C21.4220194,5.26937468 20.9140733,4.65111182 20.2093422,4.51296485 L4.98217462,1.52801539 C4.88796365,1.50954742 4.79219727,1.50016667 4.69619339,1.50000226 C3.86776748,1.49858354 3.19504549,2.16900534 3.19362677,2.99743125 Z" id="Combined-Shape" stroke="#CCCCCC"></path>
                        <path d="M4.64937798,11 C5.56123214,11 6.29875595,11.7375238 6.29875595,12.6493452 C6.29875595,13.5611667 5.56123214,14.2987232 4.64937798,14.2987232 C3.73752381,14.2987232 3,13.5611667 3,12.6493452 C3,11.7375238 3.73752381,11 4.64937798,11" id="Fill-4" fill="#CCCCCC"></path>
                        <path d="M3,6.37249756 L18.2532752,6.39565745 L18.2532752,6.39565745 C19.1240685,6.39697963 19.915825,5.89086406 20.2802124,5.09997559 L20.2802124,5.09997559" id="Line" stroke="#CCCCCC" stroke-linecap="square"></path>
                    </g>
                </g>
            </g>
        </g>
    </g>
</svg>