<?xml version="1.0" encoding="UTF-8"?>
<svg width="22px" height="22px" viewBox="0 0 22 22" version="1.1" xmlns="http://www.w3.org/2000/svg" xmlns:xlink="http://www.w3.org/1999/xlink">
    <!-- Generator: Sketch 46.1 (44463) - http://www.bohemiancoding.com/sketch -->
    <title>Group</title>
    <desc>Created with Sketch.</desc>
    <defs></defs>
    <g id="Page-1" stroke="none" stroke-width="1" fill="none" fill-rule="evenodd">
        <g id="01CRM首页-第一期-默认状态" transform="translate(-580.000000, -614.000000)">
            <g id="Group-6-Copy-2" transform="translate(495.000000, 532.000000)">
                <g id="Group-30" transform="translate(85.000000, 82.000000)">
                    <g id="Group">
                        <path d="M17.7428759,10.0807043 L17.7382797,10.0844172 C17.092832,10.6037329 16.1486047,10.5014826 15.6292891,9.85603492 L11.4700559,4.68660175 C11.4472598,4.65826884 11.4214407,4.63250742 11.3930569,4.60977466 C11.1775213,4.4371508 10.8628558,4.47193768 10.6902319,4.68747333 L6.5389687,9.87068055 C6.02829069,10.5083057 5.10127324,10.620035 4.45371996,10.1220062 L1.30500845,7.7003539 C1.19127915,7.61288548 1.04545508,7.57848776 0.904624923,7.6059094 C0.63357303,7.65868707 0.456626813,7.9212028 0.509404485,8.19225469 L2.72172924,19.5541581 C2.76746193,19.7890288 2.97318912,19.9585759 3.21247084,19.9585957 L18.929221,19.9598929 C19.1713091,19.9599129 19.3786361,19.7864964 19.4213996,19.5482151 L21.4583055,8.19843213 C21.4839925,8.05530231 21.4460954,7.90808075 21.3544927,7.79514315 C21.1805413,7.58067745 20.8656671,7.54783409 20.6512014,7.72178545 L17.7428759,10.0807043 Z" id="Path-2" stroke="#CCCCCC"></path>
                        <circle id="Oval" stroke="#CCCCCC" cx="11" cy="3" r="1.5"></circle>
                        <rect id="Rectangle-6" fill="#FFFFFF" x="10" y="0" width="1" height="1"></rect>
                        <rect id="Rectangle-6-Copy" fill="#FFFFFF" x="10" y="21" width="1" height="1"></rect>
                    </g>
                </g>
            </g>
        </g>
    </g>
</svg>