<?xml version="1.0" encoding="UTF-8"?>
<svg width="36px" height="36px" viewBox="0 0 36 36" version="1.1" xmlns="http://www.w3.org/2000/svg" xmlns:xlink="http://www.w3.org/1999/xlink">
    <!-- Generator: Sketch 46.1 (44463) - http://www.bohemiancoding.com/sketch -->
    <title>Group 29</title>
    <desc>Created with Sketch.</desc>
    <defs></defs>
    <g id="Page-1" stroke="none" stroke-width="1" fill="none" fill-rule="evenodd">
        <g id="01CRM首页-第一期-默认状态" transform="translate(-1302.000000, -399.000000)">
            <g id="Group-6-Copy" transform="translate(495.000000, 317.000000)">
                <g id="Group-8-Copy-6" transform="translate(807.000000, 50.000000)">
                    <g id="Group-29" transform="translate(0.000000, 32.000000)">
                        <circle id="Oval-6" fill="#D7BDFF" cx="18" cy="18" r="18"></circle>
                        <g id="会员" transform="translate(5.000000, 5.000000)" stroke="#FFFFFF">
                            <g id="Group" transform="translate(2.000000, 3.000000)">
                                <path d="M17.7428759,9.08070425 L17.7382797,9.08441724 C17.092832,9.60373289 16.1486047,9.50148264 15.6292891,8.85603492 L11.4700559,3.68660175 C11.4472598,3.65826884 11.4214407,3.63250742 11.3930569,3.60977466 C11.1775213,3.4371508 10.8628558,3.47193768 10.6902319,3.68747333 L6.5389687,8.87068055 C6.02829069,9.50830572 5.10127324,9.62003497 4.45371996,9.12200621 L1.30500845,6.7003539 C1.19127915,6.61288548 1.04545508,6.57848776 0.904624923,6.6059094 C0.63357303,6.65868707 0.456626813,6.9212028 0.509404485,7.19225469 L2.72172924,18.5541581 C2.76746193,18.7890288 2.97318912,18.9585759 3.21247084,18.9585957 L18.929221,18.9598929 C19.1713091,18.9599129 19.3786361,18.7864964 19.4213996,18.5482151 L21.4583055,7.19843213 C21.4839925,7.05530231 21.4460954,6.90808075 21.3544927,6.79514315 C21.1805413,6.58067745 20.8656671,6.54783409 20.6512014,6.72178545 L17.7428759,9.08070425 Z" id="Path-2"></path>
                                <circle id="Oval" cx="11" cy="2" r="1.5"></circle>
                            </g>
                        </g>
                    </g>
                </g>
            </g>
        </g>
    </g>
</svg>