<?xml version="1.0" encoding="UTF-8"?>
<svg width="26px" height="26px" viewBox="0 0 26 26" version="1.1" xmlns="http://www.w3.org/2000/svg" xmlns:xlink="http://www.w3.org/1999/xlink">
    <!-- Generator: Sketch 46.1 (44463) - http://www.bohemiancoding.com/sketch -->
    <title>运营中心</title>
    <desc>Created with Sketch.</desc>
    <defs></defs>
    <g id="Symbols" stroke="none" stroke-width="1" fill="none" fill-rule="evenodd">
        <g id="运营中心">
            <g id="Group-11" transform="translate(2.500000, 2.000000)">
                <path d="M2,3.23913043 C1.17157288,3.23913043 0.5,3.91070331 0.5,4.73913043 L0.5,14.4807732 C0.5,15.3092003 1.17157288,15.9807732 2,15.9807732 L19,15.9807732 C19.8284271,15.9807732 20.5,15.3092003 20.5,14.4807732 L20.5,4.73913043 C20.5,3.91070331 19.8284271,3.23913043 19,3.23913043 L2,3.23913043 Z" id="Rectangle-39" stroke="#CCCCCC"></path>
                <path d="M10.9565217,21 L10.9565217,16.4347826 L10.0434783,16.4347826 L10.0434783,21 L5.93478261,21 L5.93478261,21 C5.68265261,21 5.47826087,21.2043917 5.47826087,21.4565217 C5.47826087,21.7086517 5.68265261,21.9130435 5.93478261,21.9130435 L5.93478261,21.9130435 L15.0652174,21.9130435 C15.3173474,21.9130435 15.5217391,21.7086517 15.5217391,21.4565217 C15.5217391,21.2043917 15.3173474,21 15.0652174,21 L15.0652174,21 L10.9565217,21 Z" id="Combined-Shape" fill="#CCCCCC"></path>
                <path d="M5.47826087,11.5331808 L7.9427788,9.06866285 L7.9427788,9.06866285 C8.33330309,8.67813855 8.96646807,8.67813855 9.35699236,9.06866285 L11.1144035,10.826074 L11.1144035,10.826074 C11.5049278,11.2165983 12.1380928,11.2165983 12.5286171,10.826074 L16.0503432,7.30434783" id="Path-4" stroke="#CCCCCC" stroke-linecap="round"></path>
                <path d="M10.5,0 L10.5,0 L10.5,0 C10.75213,-4.63155286e-17 10.9565217,0.204391745 10.9565217,0.456521739 L10.9565217,3.17162471 L10.0434783,3.17162471 L10.0434783,0.456521739 L10.0434783,0.456521739 C10.0434783,0.204391745 10.24787,4.63155286e-17 10.5,0 Z" id="Rectangle-42" fill="#CCCCCC"></path>
            </g>
        </g>
    </g>
</svg>