<?xml version="1.0" encoding="UTF-8"?>
<svg width="16px" height="11px" viewBox="0 0 16 11" version="1.1" xmlns="http://www.w3.org/2000/svg" xmlns:xlink="http://www.w3.org/1999/xlink">
    <!-- Generator: Sketch 46.1 (44463) - http://www.bohemiancoding.com/sketch -->
    <title>查看</title>
    <desc>Created with Sketch.</desc>
    <defs></defs>
    <g id="Page-1" stroke="none" stroke-width="1" fill="none" fill-rule="evenodd">
        <g id="05-会员唤醒" transform="translate(-693.000000, -445.000000)">
            <g id="Group-8" transform="translate(215.000000, 392.000000)">
                <g id="查看" transform="translate(477.000000, 49.000000)">
                    <g id="查看-copy">
                        <rect id="Rectangle-15" x="0" y="0" width="18" height="18"></rect>
                        <g id="查看(1)" transform="translate(1.000000, 4.000000)" fill-rule="nonzero" fill="#939CA2">
                            <path d="M15.8971319,5.16355395 C13.1697261,1.56595845 10.326689,-0.167100105 7.4478605,0.012677253 C6.40942866,0.0775089917 5.37213723,0.395707287 4.36480595,0.958481444 C3.57060039,1.40218093 2.79343911,1.99822003 2.05488048,2.7300162 C0.805089864,3.96839561 0.0994149545,5.16270486 0.0699850682,5.21293526 C0.0190771364,5.29984376 -0.00312381818,5.39640874 0.000410340909,5.49089261 C-0.00336477273,5.58582596 0.0188361591,5.68290711 0.0699850682,5.77019851 C0.0994149545,5.82044564 0.805089864,7.01472151 2.05488048,8.25313432 C2.79343911,8.98491375 3.57060039,9.58093626 4.36480595,10.0246357 C5.37213723,10.5874265 6.40942866,10.9056415 7.4478605,10.9704566 C7.58336334,10.9789143 7.71832,10.9831432 7.85364611,10.9831432 C10.5938392,10.9831432 13.2980803,9.24788691 15.897132,5.81957989 C15.9707228,5.72249874 16.003976,5.60598811 15.9996225,5.49157523 C16.003976,5.37716232 15.9707228,5.26063503 15.8971319,5.16355395 L15.8971319,5.16355395 Z M7.51060793,9.97360614 C5.47114189,9.84805499 3.79073018,8.58640007 2.74018577,7.5500912 C1.89441364,6.71575298 1.30697239,5.88725865 1.04600698,5.49157523 C1.30694027,5.09590852 1.89436545,4.2674141 2.74018577,3.43304267 C3.79073018,2.39673378 5.47114189,1.13504555 7.51060793,1.00951106 C9.97921702,0.857704225 12.4691596,2.36530018 14.916371,5.49155855 C12.4691436,8.61785025 9.97900823,10.1255628 7.51060793,9.97360614 L7.51060793,9.97360614 Z M8.00005659,3.12461739 C6.69794436,3.12461739 5.63859673,4.22252807 5.63859673,5.57204053 C5.63859673,6.92156964 6.69794436,8.0194636 8.00005659,8.0194636 C9.3021688,8.0194636 10.3615165,6.92156957 10.3615165,5.57204053 C10.3615165,4.22252807 9.3021688,3.12461739 8.00005659,3.12461739 L8.00005659,3.12461739 Z M7.99030552,7.02049874 C7.21966641,7.02049874 6.59270684,6.37073291 6.59270684,5.57202388 C6.59270684,4.7733315 7.21966641,4.12354899 7.99030552,4.12354899 C8.76094466,4.12354899 9.38790423,4.7733315 9.38790423,5.57202388 C9.38790423,6.37073291 8.76092866,7.02049874 7.99030552,7.02049874 L7.99030552,7.02049874 Z" id="Shape"></path>
                        </g>
                    </g>
                </g>
            </g>
        </g>
    </g>
</svg>